<?xml version="1.0" encoding="UTF-8" standalone="no"?>
<svg
    xmlns:svg="http://www.w3.org/2000/svg"
    xmlns="http://www.w3.org/2000/svg"
    width="269.4mm"
    height="205.9mm"
    viewbox="0 0 269.4 205.9"
>
    <!-- <rect x="1" y="1" width="267.4" height="203.9" fill="transparent" stroke-width="0.02" stroke="#000" /> -->
    <rect x="0" y="0" width="269.4" height="205.9" fill="transparent" stroke-width="0.02" stroke="#000" />
    <g transform="scale(1, -1)" stroke-width="0.4" fill="none">
        <g transform="translate(32.129999999999995,-46.88) rotate(90)"><polygon points="43.88,15.0 40.5,15.0 40.5,25.5 15.0,25.5 15.0,28.88 -15.0,28.88 -15.0,25.5 -40.5,25.5 -40.5,15.0 -43.88,15.0 -43.88,-15.0 -40.5,-15.0 -40.5,-25.5 -15.0,-25.5 -15.0,-28.88 15.0,-28.88 15.0,-25.5 40.5,-25.5 40.5,-15.0 43.88,-15.0" fill="none" stroke="black" /></g>
<g transform="translate(32.129999999999995,-46.88) rotate(90)"><polygon points="33.88,-13.88 28.88,-18.88 -28.88,-18.88 -33.88,-13.88 -33.88,13.88 -28.88,18.88 28.88,18.88 33.88,13.88" fill="none" stroke="black" /></g>
<g transform="translate(46.88,-125.89) rotate(0)"><polygon points="43.88,15.0 40.5,15.0 40.5,25.5 15.0,25.5 15.0,28.88 -15.0,28.88 -15.0,25.5 -40.5,25.5 -40.5,15.0 -43.88,15.0 -43.88,-15.0 -40.5,-15.0 -40.5,-25.5 -15.0,-25.5 -15.0,-28.88 15.0,-28.88 15.0,-25.5 40.5,-25.5 40.5,-15.0 43.88,-15.0" fill="none" stroke="black" /></g>
<g transform="translate(46.88,-125.89) rotate(0)"><polygon points="33.88,-13.88 28.88,-18.88 -28.88,-18.88 -33.88,-13.88 -33.88,13.88 -28.88,18.88 28.88,18.88 33.88,13.88" fill="none" stroke="black" /></g>
<g transform="translate(92.00999999999999,-46.88) rotate(90)"><polygon points="43.88,15.0 40.5,15.0 40.5,25.0 15.0,25.0 15.0,21.62 -15.0,21.62 -15.0,25.0 -40.5,25.0 -40.5,15.0 -43.88,15.0 -43.88,-15.0 -40.5,-15.0 -40.5,-25.0 -15.0,-25.0 -15.0,-21.62 15.0,-21.62 15.0,-25.0 40.5,-25.0 40.5,-15.0 43.88,-15.0" fill="none" stroke="black" /></g>
<g transform="translate(92.00999999999999,-46.88) rotate(90)"><polygon points="10.0,-14.5 30.0,-14.5 30.0,14.5 10.0,14.5" fill="none" stroke="black" /></g>
<g transform="translate(92.00999999999999,-46.88) rotate(90)"><polygon points="-30.0,-14.5 -10.0,-14.5 -10.0,14.5 -30.0,14.5" fill="none" stroke="black" /></g>
<g transform="translate(140.64000000000001,-122.01) rotate(0)"><polygon points="43.88,15.0 40.5,15.0 40.5,25.0 15.0,25.0 15.0,21.62 -15.0,21.62 -15.0,25.0 -40.5,25.0 -40.5,15.0 -43.88,15.0 -43.88,-15.0 -40.5,-15.0 -40.5,-25.0 -15.0,-25.0 -15.0,-21.62 15.0,-21.62 15.0,-25.0 40.5,-25.0 40.5,-15.0 43.88,-15.0" fill="none" stroke="black" /></g>
<g transform="translate(140.64000000000001,-122.01) rotate(0)"><polygon points="10.0,-14.5 30.0,-14.5 30.0,14.5 10.0,14.5" fill="none" stroke="black" /></g>
<g transform="translate(140.64000000000001,-122.01) rotate(0)"><polygon points="-30.0,-14.5 -10.0,-14.5 -10.0,14.5 -30.0,14.5" fill="none" stroke="black" /></g>
<g transform="translate(148.01,-46.88) rotate(90)"><polygon points="43.88,15.0 40.5,15.0 40.5,25.0 15.0,25.0 15.0,21.62 -15.0,21.62 -15.0,25.0 -40.5,25.0 -40.5,15.0 -43.88,15.0 -43.88,-15.0 -40.5,-15.0 -40.5,-25.0 -15.0,-25.0 -15.0,-21.62 15.0,-21.62 15.0,-25.0 40.5,-25.0 40.5,-15.0 43.88,-15.0" fill="none" stroke="black" /></g>
<g transform="translate(148.01,-46.88) rotate(90)"><polygon points="10.0,-14.5 30.0,-14.5 30.0,14.5 10.0,14.5" fill="none" stroke="black" /></g>
<g transform="translate(148.01,-46.88) rotate(90)"><polygon points="-30.0,-14.5 -10.0,-14.5 -10.0,14.5 -30.0,14.5" fill="none" stroke="black" /></g>
<g transform="translate(204.01,-46.88) rotate(90)"><polygon points="43.88,15.0 40.5,15.0 40.5,25.0 15.0,25.0 15.0,21.62 -15.0,21.62 -15.0,25.0 -40.5,25.0 -40.5,15.0 -43.88,15.0 -43.88,-15.0 -40.5,-15.0 -40.5,-25.0 -15.0,-25.0 -15.0,-21.62 15.0,-21.62 15.0,-25.0 40.5,-25.0 40.5,-15.0 43.88,-15.0" fill="none" stroke="black" /></g>
<g transform="translate(204.01,-46.88) rotate(90)"><polygon points="10.0,-14.5 30.0,-14.5 30.0,14.5 10.0,14.5" fill="none" stroke="black" /></g>
<g transform="translate(204.01,-46.88) rotate(90)"><polygon points="-30.0,-14.5 -10.0,-14.5 -10.0,14.5 -30.0,14.5" fill="none" stroke="black" /></g>
<g transform="translate(215.77,-125.64) rotate(90)"><polygon points="28.88,-25.0 28.88,-15.0 25.5,-15.0 25.5,15.0 28.88,15.0 28.88,25.0 15.0,25.0 15.0,21.62 -15.0,21.62 -15.0,25.0 -28.88,25.0 -28.88,15.0 -25.5,15.0 -25.5,-15.0 -28.88,-15.0 -28.88,-25.0 -15.0,-25.0 -15.0,-21.62 15.0,-21.62 15.0,-25.0" fill="none" stroke="black" /></g>
<g transform="translate(215.77,-125.64) rotate(90)"><polygon points="-10.0,-14.5 10.0,-14.5 10.0,14.5 -10.0,14.5" fill="none" stroke="black" /></g>
    </g>
</svg>
