<?xml version="1.0" encoding="UTF-8" standalone="no"?>
<svg
    xmlns:svg="http://www.w3.org/2000/svg"
    xmlns="http://www.w3.org/2000/svg"
    width="269.4mm"
    height="205.9mm"
    viewbox="0 0 269.4 205.9"
>
    <!-- <rect x="1" y="1" width="267.4" height="203.9" fill="transparent" stroke-width="0.02" stroke="#000" /> -->
    <rect x="0" y="0" width="269.4" height="205.9" fill="transparent" stroke-width="0.02" stroke="#000" />
    <g transform="scale(1, -1)" stroke-width="0.4" fill="none">
        <g transform="translate(86.88,-36.63) rotate(0)"><polygon points="83.88,15.0 80.5,15.0 80.5,30.0 15.0,30.0 15.0,33.38 -15.0,33.38 -15.0,30.0 -80.5,30.0 -80.5,15.0 -83.88,15.0 -83.88,-15.0 -80.5,-15.0 -80.5,-30.0 -15.0,-30.0 -15.0,-33.38 15.0,-33.38 15.0,-30.0 80.5,-30.0 80.5,-15.0 83.88,-15.0" fill="none" stroke="black" /></g>
<g transform="translate(86.88,-36.63) rotate(0)"><polygon points="73.88,18.38 73.88,-18.38 68.88,-23.38 -68.88,-23.38 -73.88,-18.38 -73.88,18.38 -68.88,23.38 68.88,23.38" fill="none" stroke="black" /></g>
<g transform="translate(86.88,-109.39000000000001) rotate(0)"><polygon points="83.88,15.0 80.5,15.0 80.5,30.0 15.0,30.0 15.0,33.38 -15.0,33.38 -15.0,30.0 -80.5,30.0 -80.5,15.0 -83.88,15.0 -83.88,-15.0 -80.5,-15.0 -80.5,-30.0 -15.0,-30.0 -15.0,-33.38 15.0,-33.38 15.0,-30.0 80.5,-30.0 80.5,-15.0 83.88,-15.0" fill="none" stroke="black" /></g>
<g transform="translate(86.88,-109.39000000000001) rotate(0)"><polygon points="73.88,18.38 73.88,-18.38 68.88,-23.38 -68.88,-23.38 -73.88,-18.38 -73.88,18.38 -68.88,23.38 68.88,23.38" fill="none" stroke="black" /></g>
<g transform="translate(224.65289854999997,-36.38) rotate(90)"><polygon points="-30.54174102,30.82368469 -29.33736931,28.93501088 -33.38,26.35710145 -33.38,14.64289855 -30.0,14.64289855 -30.0,-15.35710145 -33.38,-15.35710145 -33.38,-26.35710145 -15.0,-26.35710145 -15.0,-22.97710145 15.0,-22.97710145 15.0,-26.35710145 33.38,-26.35710145 33.38,-15.35710145 30.0,-15.35710145 30.0,14.64289855 33.38,14.64289855 33.38,26.35710145 29.33736931,28.93501088 30.54174102,30.82368469 13.67858194,41.57700352 12.47421023,39.68832971 0.0,47.64289855 -12.47421023,39.68832971 -13.67858194,41.57700352" fill="none" stroke="black" /></g>
<g transform="translate(224.65289854999997,-36.38) rotate(90)"><polygon points="-10.0,-14.85710145 10.0,-14.85710145 10.0,14.14289855 -10.0,14.14289855" fill="none" stroke="black" /></g>
<g transform="translate(224.65289854999997,-109.14000000000001) rotate(90)"><polygon points="-30.54174102,30.82368469 -29.33736931,28.93501088 -33.38,26.35710145 -33.38,14.64289855 -30.0,14.64289855 -30.0,-15.35710145 -33.38,-15.35710145 -33.38,-26.35710145 -15.0,-26.35710145 -15.0,-22.97710145 15.0,-22.97710145 15.0,-26.35710145 33.38,-26.35710145 33.38,-15.35710145 30.0,-15.35710145 30.0,14.64289855 33.38,14.64289855 33.38,26.35710145 29.33736931,28.93501088 30.54174102,30.82368469 13.67858194,41.57700352 12.47421023,39.68832971 0.0,47.64289855 -12.47421023,39.68832971 -13.67858194,41.57700352" fill="none" stroke="black" /></g>
<g transform="translate(224.65289854999997,-109.14000000000001) rotate(90)"><polygon points="-10.0,-14.85710145 10.0,-14.85710145 10.0,14.14289855 -10.0,14.14289855" fill="none" stroke="black" /></g>
    </g>
    <style>
        text {
            font: 1mm sans-serif;
            text-anchor: middle;
            dominant-baseline: middle;
        }
    </style>
    <g transform="scale(1, 1)" stroke-width="0.4" fill="#000">
        <text x="86.88" y="36.63">0</text>
<text x="86.88" y="109.39000000000001">1</text>
<text x="224.65289854999997" y="36.38">6</text>
<text x="224.65289854999997" y="109.14000000000001">7</text>
    </g>
</svg>
