<?xml version="1.0" encoding="UTF-8" standalone="no"?>
<svg
    xmlns:svg="http://www.w3.org/2000/svg"
    xmlns="http://www.w3.org/2000/svg"
    width="269.4mm"
    height="205.9mm"
    viewbox="0 0 269.4 205.9"
>
    <!-- <rect x="1" y="1" width="267.4" height="203.9" fill="transparent" stroke-width="0.02" stroke="#000" /> -->
    <rect x="0" y="0" width="269.4" height="205.9" fill="transparent" stroke-width="0.02" stroke="#000" />
    <g transform="scale(1, -1)" stroke-width="0.4" fill="none">
        <g transform="translate(31.88,-50.82066667) rotate(0)"><polygon points="-27.70698208,29.15120509 -26.34409542,27.37352685 -28.88,25.42933333 -28.88,14.57066667 -25.5,14.57066667 -25.5,-15.42933333 -28.88,-15.42933333 -28.88,-25.42933333 -15.0,-25.42933333 -15.0,-22.04933333 15.0,-22.04933333 15.0,-25.42933333 28.88,-25.42933333 28.88,-15.42933333 25.5,-15.42933333 25.5,14.57066667 28.88,14.57066667 28.88,25.42933333 26.34409542,27.37352685 27.70698208,29.15120509 11.83485485,41.31983597 10.47196819,39.54215772 0.0,47.57066667 -10.47196819,39.54215772 -11.83485485,41.31983597" fill="none" stroke="black" /></g>
<g transform="translate(31.88,-50.82066667) rotate(0)"><polygon points="-10.0,-14.92933333 10.0,-14.92933333 10.0,14.07066667 -10.0,14.07066667" fill="none" stroke="black" /></g>
<g transform="translate(31.88,-129.82066667) rotate(0)"><polygon points="-27.70698208,29.15120509 -26.34409542,27.37352685 -28.88,25.42933333 -28.88,14.57066667 -25.5,14.57066667 -25.5,-15.42933333 -28.88,-15.42933333 -28.88,-25.42933333 -15.0,-25.42933333 -15.0,-22.04933333 15.0,-22.04933333 15.0,-25.42933333 28.88,-25.42933333 28.88,-15.42933333 25.5,-15.42933333 25.5,14.57066667 28.88,14.57066667 28.88,25.42933333 26.34409542,27.37352685 27.70698208,29.15120509 11.83485485,41.31983597 10.47196819,39.54215772 0.0,47.57066667 -10.47196819,39.54215772 -11.83485485,41.31983597" fill="none" stroke="black" /></g>
<g transform="translate(31.88,-129.82066667) rotate(0)"><polygon points="-10.0,-14.92933333 10.0,-14.92933333 10.0,14.07066667 -10.0,14.07066667" fill="none" stroke="black" /></g>
<g transform="translate(95.64,-50.82066667) rotate(0)"><polygon points="-27.70698208,29.15120509 -26.34409542,27.37352685 -28.88,25.42933333 -28.88,14.57066667 -25.5,14.57066667 -25.5,-15.42933333 -28.88,-15.42933333 -28.88,-25.42933333 -15.0,-25.42933333 -15.0,-22.04933333 15.0,-22.04933333 15.0,-25.42933333 28.88,-25.42933333 28.88,-15.42933333 25.5,-15.42933333 25.5,14.57066667 28.88,14.57066667 28.88,25.42933333 26.34409542,27.37352685 27.70698208,29.15120509 11.83485485,41.31983597 10.47196819,39.54215772 0.0,47.57066667 -10.47196819,39.54215772 -11.83485485,41.31983597" fill="none" stroke="black" /></g>
<g transform="translate(95.64,-129.82066667) rotate(0)"><polygon points="-27.70698208,29.15120509 -26.34409542,27.37352685 -28.88,25.42933333 -28.88,14.57066667 -25.5,14.57066667 -25.5,-15.42933333 -28.88,-15.42933333 -28.88,-25.42933333 -15.0,-25.42933333 -15.0,-22.04933333 15.0,-22.04933333 15.0,-25.42933333 28.88,-25.42933333 28.88,-15.42933333 25.5,-15.42933333 25.5,14.57066667 28.88,14.57066667 28.88,25.42933333 26.34409542,27.37352685 27.70698208,29.15120509 11.83485485,41.31983597 10.47196819,39.54215772 0.0,47.57066667 -10.47196819,39.54215772 -11.83485485,41.31983597" fill="none" stroke="black" /></g>
    </g>
    <style>
        text {
            font: 1mm sans-serif;
            text-anchor: middle;
            dominant-baseline: middle;
        }
    </style>
    <g transform="scale(1, 1)" stroke-width="0.4" fill="#000">
        <text x="31.88" y="50.82066667">6</text>
<text x="31.88" y="129.82066667">7</text>
<text x="95.64" y="50.82066667">8</text>
<text x="95.64" y="129.82066667">9</text>
    </g>
</svg>
