<?xml version="1.0" encoding="UTF-8" standalone="no"?>
<svg
    xmlns:svg="http://www.w3.org/2000/svg"
    xmlns="http://www.w3.org/2000/svg"
    width="269.4mm"
    height="205.9mm"
    viewbox="0 0 269.4 205.9"
>
    <!-- <rect x="1" y="1" width="267.4" height="203.9" fill="transparent" stroke-width="0.02" stroke="#000" /> -->
    <rect x="0" y="0" width="269.4" height="205.9" fill="transparent" stroke-width="0.02" stroke="#000" />
    <g transform="scale(1, -1)" stroke-width="0.4" fill="none">
        <g transform="translate(30.79886114,-55.0) rotate(90)"><polygon points="50.0,-15.54886114 50.0,15.54886114 48.035,15.54886114 48.035,25.54886114 37.98625,25.54886114 37.98625,15.54886114 35.74625,15.54886114 35.74625,25.54886114 25.6975,25.54886114 25.6975,15.54886114 23.4575,15.54886114 23.4575,25.54886114 13.40875,25.54886114 13.40875,15.54886114 11.16875,15.54886114 11.16875,25.54886114 1.12,25.54886114 1.12,15.54886114 -1.12,15.54886114 -1.12,25.54886114 -11.16875,25.54886114 -11.16875,15.54886114 -13.40875,15.54886114 -13.40875,25.54886114 -23.4575,25.54886114 -23.4575,15.54886114 -25.6975,15.54886114 -25.6975,25.54886114 -35.74625,25.54886114 -35.74625,15.54886114 -37.98625,15.54886114 -37.98625,25.54886114 -48.035,25.54886114 -48.035,15.54886114 -50.0,15.54886114 -50.0,-15.54886114 -48.035,-15.54886114 -48.035,-25.54886114 -37.98625,-25.54886114 -37.98625,-15.54886114 -35.74625,-15.54886114 -35.74625,-25.54886114 -25.6975,-25.54886114 -25.6975,-15.54886114 -23.4575,-15.54886114 -23.4575,-25.54886114 -13.40875,-25.54886114 -13.40875,-15.54886114 -11.16875,-15.54886114 -11.16875,-25.54886114 -1.12,-25.54886114 -1.12,-15.54886114 1.12,-15.54886114 1.12,-25.54886114 11.16875,-25.54886114 11.16875,-15.54886114 13.40875,-15.54886114 13.40875,-25.54886114 23.4575,-25.54886114 23.4575,-15.54886114 25.6975,-15.54886114 25.6975,-25.54886114 35.74625,-25.54886114 35.74625,-15.54886114 37.98625,-15.54886114 37.98625,-25.54886114 48.035,-25.54886114 48.035,-15.54886114" fill="none" stroke="black" /></g>
    </g>
</svg>
