<?xml version="1.0" encoding="UTF-8" standalone="no"?>
<svg
    xmlns:svg="http://www.w3.org/2000/svg"
    xmlns="http://www.w3.org/2000/svg"
    width="269.4mm"
    height="205.9mm"
    viewbox="0 0 269.4 205.9"
>
    <!-- <rect x="1" y="1" width="267.4" height="203.9" fill="transparent" stroke-width="0.02" stroke="#000" /> -->
    <rect x="0" y="0" width="269.4" height="205.9" fill="transparent" stroke-width="0.02" stroke="#000" />
    <g transform="scale(1, -1)" stroke-width="0.4" fill="none">
        <g transform="translate(86.88,-29.25) rotate(0)"><polygon points="83.88,-26.0 83.88,26.0 -83.88,26.0 -83.88,-26.0" fill="none" stroke="black" /></g>
<g transform="translate(86.88,-87.25) rotate(0)"><polygon points="83.88,-26.0 83.88,26.0 -83.88,26.0 -83.88,-26.0" fill="none" stroke="black" /></g>
<g transform="translate(86.88,-87.25) rotate(0)"><polygon points="65.5,-11.0 78.5,-11.0 78.5,19.5 65.5,19.5" fill="none" stroke="black" /></g>
<g transform="translate(86.88,-87.25) rotate(0)"><polygon points="41.0,-2.5 52.0,-2.5 52.0,19.5 41.0,19.5" fill="none" stroke="black" /></g>
<g transform="translate(86.88,-87.25) rotate(0)"><polygon points="14.0,-2.5 25.0,-2.5 25.0,19.5 14.0,19.5" fill="none" stroke="black" /></g>
<g transform="translate(86.88,-87.25) rotate(0)"><polygon points="-11.5,-11.0 1.5,-11.0 1.5,19.5 -11.5,19.5" fill="none" stroke="black" /></g>
<g transform="translate(86.88,-87.25) rotate(0)"><polygon points="-34.0,-2.5 -23.0,-2.5 -23.0,19.5 -34.0,19.5" fill="none" stroke="black" /></g>
<g transform="translate(86.88,-87.25) rotate(0)"><polygon points="-79.0,-11.0 -66.0,-11.0 -66.0,19.5 -79.0,19.5" fill="none" stroke="black" /></g>
<g transform="translate(86.88,-87.25) rotate(0)"><polygon points="-55.0,-2.5 -44.0,-2.5 -44.0,19.5 -55.0,19.5" fill="none" stroke="black" /></g>
<g transform="translate(72.5,-131.25) rotate(0)"><polygon points="6.5,-12.0 6.5,12.0 -6.5,12.0 -6.5,-12.0" fill="none" stroke="black" /></g>
<g transform="translate(72.5,-131.25) rotate(0)"><polygon points="-4.5,-9.5 -4.5,-0.375 -0.375,-0.375 -0.375,-9.5" fill="none" stroke="black" /></g>
<g transform="translate(72.5,-131.25) rotate(0)"><polygon points="-4.5,0.375 -4.5,9.5 -0.375,9.5 -0.375,0.375" fill="none" stroke="black" /></g>
<g transform="translate(72.5,-131.25) rotate(0)"><polygon points="0.375,0.375 0.375,9.5 4.5,9.5 4.5,0.375" fill="none" stroke="black" /></g>
<g transform="translate(72.5,-131.25) rotate(0)"><polygon points="4.5,-9.5 4.5,-0.375 0.375,-0.375 0.375,-9.5" fill="none" stroke="black" /></g>
<g transform="translate(78.25,-155.5) rotate(90)"><polygon points="6.5,-12.0 6.5,12.0 -6.5,12.0 -6.5,-12.0" fill="none" stroke="black" /></g>
<g transform="translate(78.25,-155.5) rotate(90)"><polygon points="-4.5,-9.5 -4.5,-0.375 -0.375,-0.375 -0.375,-9.5" fill="none" stroke="black" /></g>
<g transform="translate(78.25,-155.5) rotate(90)"><polygon points="-4.5,0.375 -4.5,9.5 -0.375,9.5 -0.375,0.375" fill="none" stroke="black" /></g>
<g transform="translate(78.25,-155.5) rotate(90)"><polygon points="0.375,0.375 0.375,9.5 4.5,9.5 4.5,0.375" fill="none" stroke="black" /></g>
<g transform="translate(78.25,-155.5) rotate(90)"><polygon points="4.5,-9.5 4.5,-0.375 0.375,-0.375 0.375,-9.5" fill="none" stroke="black" /></g>
<g transform="translate(91.5,-131.25) rotate(0)"><polygon points="6.5,-12.0 6.5,12.0 -6.5,12.0 -6.5,-12.0" fill="none" stroke="black" /></g>
<g transform="translate(91.5,-131.25) rotate(0)"><polygon points="-4.5,-9.5 -4.5,-0.375 -0.375,-0.375 -0.375,-9.5" fill="none" stroke="black" /></g>
<g transform="translate(91.5,-131.25) rotate(0)"><polygon points="-4.5,0.375 -4.5,9.5 -0.375,9.5 -0.375,0.375" fill="none" stroke="black" /></g>
<g transform="translate(91.5,-131.25) rotate(0)"><polygon points="0.375,0.375 0.375,9.5 4.5,9.5 4.5,0.375" fill="none" stroke="black" /></g>
<g transform="translate(91.5,-131.25) rotate(0)"><polygon points="4.5,-9.5 4.5,-0.375 0.375,-0.375 0.375,-9.5" fill="none" stroke="black" /></g>
<g transform="translate(108.25,-155.5) rotate(90)"><polygon points="6.5,-12.0 6.5,12.0 -6.5,12.0 -6.5,-12.0" fill="none" stroke="black" /></g>
<g transform="translate(108.25,-155.5) rotate(90)"><polygon points="-4.5,-9.5 -4.5,-0.375 -0.375,-0.375 -0.375,-9.5" fill="none" stroke="black" /></g>
<g transform="translate(108.25,-155.5) rotate(90)"><polygon points="-4.5,0.375 -4.5,9.5 -0.375,9.5 -0.375,0.375" fill="none" stroke="black" /></g>
<g transform="translate(108.25,-155.5) rotate(90)"><polygon points="0.375,0.375 0.375,9.5 4.5,9.5 4.5,0.375" fill="none" stroke="black" /></g>
<g transform="translate(108.25,-155.5) rotate(90)"><polygon points="4.5,-9.5 4.5,-0.375 0.375,-0.375 0.375,-9.5" fill="none" stroke="black" /></g>
<g transform="translate(10.5,-135.5) rotate(0)"><polygon points="7.5,-16.25 7.5,16.25 -7.5,16.25 -7.5,-16.25" fill="none" stroke="black" /></g>
<g transform="translate(10.5,-135.5) rotate(0)"><polygon points="-5.5,-15.25 5.5,-15.25 5.5,14.25 -5.5,14.25" fill="none" stroke="black" /></g>
<g transform="translate(31.5,-135.5) rotate(0)"><polygon points="7.5,-16.25 7.5,16.25 -7.5,16.25 -7.5,-16.25" fill="none" stroke="black" /></g>
<g transform="translate(31.5,-135.5) rotate(0)"><polygon points="-5.5,-15.25 5.5,-15.25 5.5,14.25 -5.5,14.25" fill="none" stroke="black" /></g>
<g transform="translate(52.5,-135.5) rotate(0)"><polygon points="7.5,-16.25 7.5,16.25 -7.5,16.25 -7.5,-16.25" fill="none" stroke="black" /></g>
<g transform="translate(52.5,-135.5) rotate(0)"><polygon points="-5.5,-15.25 5.5,-15.25 5.5,14.25 -5.5,14.25" fill="none" stroke="black" /></g>
<g transform="translate(233.01,-37.5) rotate(90)"><polygon points="4.5,45.13043478 4.5,56.0 -4.5,56.0 -4.5,45.13043478 -34.5,26.0 -34.5,-26.0 34.5,-26.0 34.5,26.0" fill="none" stroke="black" /></g>
<g transform="translate(117.75,-123.94) rotate(90)"><polygon points="4.94,-13.5 4.94,13.5 -4.94,13.5 -4.94,-13.5" fill="none" stroke="black" /></g>
<g transform="translate(130.94,-148.63) rotate(0)"><polygon points="4.94,-13.5 4.94,13.5 -4.94,13.5 -4.94,-13.5" fill="none" stroke="black" /></g>
<g transform="translate(146.82,-132.75) rotate(0)"><polygon points="4.94,-13.5 4.94,13.5 -4.94,13.5 -4.94,-13.5" fill="none" stroke="black" /></g>
<g transform="translate(179.54,-129.25) rotate(0)"><polygon points="4.78,-10.0 4.78,10.0 -4.78,10.0 -4.78,-10.0" fill="none" stroke="black" /></g>
<g transform="translate(194.01,-149.78) rotate(90)"><polygon points="4.78,-10.0 4.78,10.0 -4.78,10.0 -4.78,-10.0" fill="none" stroke="black" /></g>
<g transform="translate(163.26,-129.25) rotate(0)"><polygon points="5.5,-10.0 5.5,10.0 -5.5,10.0 -5.5,-10.0" fill="none" stroke="black" /></g>
<g transform="translate(168.01,-150.5) rotate(90)"><polygon points="5.5,-10.0 5.5,10.0 -5.5,10.0 -5.5,-10.0" fill="none" stroke="black" /></g>
<g transform="translate(212.73,-119.19) rotate(90)"><polygon points="6.0,-4.72 6.0,4.72 -6.0,4.72 -6.0,-4.72" fill="none" stroke="black" /></g>
<g transform="translate(212.73,-119.19) rotate(90)"><polygon points="-2.025,0.255 2.025,0.255 2.025,1.995 -2.025,1.995" fill="none" stroke="black" /></g>
<g transform="translate(225.23999999999998,-84.0) rotate(90)"><polygon points="6.0,-4.72 6.0,4.72 -6.0,4.72 -6.0,-4.72" fill="none" stroke="black" /></g>
<g transform="translate(225.23999999999998,-84.0) rotate(90)"><polygon points="-2.025,0.255 2.025,0.255 2.025,1.995 -2.025,1.995" fill="none" stroke="black" /></g>
<g transform="translate(182.73,-85.0) rotate(90)"><polygon points="7.0,-5.72 7.0,5.72 -7.0,5.72 -7.0,-5.72" fill="none" stroke="black" /></g>
<g transform="translate(182.73,-85.0) rotate(90)"><polygon points="-2.025,0.255 2.025,0.255 2.025,1.995 -2.025,1.995" fill="none" stroke="black" /></g>
<g transform="translate(182.73,-105.0) rotate(90)"><polygon points="7.0,-5.72 7.0,5.72 -7.0,5.72 -7.0,-5.72" fill="none" stroke="black" /></g>
<g transform="translate(182.73,-105.0) rotate(90)"><polygon points="-2.025,0.255 2.025,0.255 2.025,1.995 -2.025,1.995" fill="none" stroke="black" /></g>
<g transform="translate(196.29,-125.0) rotate(90)"><polygon points="7.0,-5.72 7.0,5.72 -7.0,5.72 -7.0,-5.72" fill="none" stroke="black" /></g>
<g transform="translate(196.29,-125.0) rotate(90)"><polygon points="-2.025,0.255 2.025,0.255 2.025,1.995 -2.025,1.995" fill="none" stroke="black" /></g>
<g transform="translate(226.26999999999998,-100.97) rotate(0)"><polygon points="6.0,-4.72 6.0,4.72 -6.0,4.72 -6.0,-4.72" fill="none" stroke="black" /></g>
<g transform="translate(226.26999999999998,-100.97) rotate(0)"><polygon points="-2.025,0.255 2.025,0.255 2.025,1.995 -2.025,1.995" fill="none" stroke="black" /></g>
<g transform="translate(202.95,-104.095) rotate(90)"><polygon points="3.095,-8.5 3.095,8.5 -3.095,8.5 -3.095,-8.5" fill="none" stroke="black" /></g>
<g transform="translate(211.17499999999998,-86.75) rotate(0)"><polygon points="3.095,-8.5 3.095,8.5 -3.095,8.5 -3.095,-8.5" fill="none" stroke="black" /></g>
<g transform="translate(198.14,-86.75) rotate(0)"><polygon points="3.94,-8.5 3.94,8.5 -3.94,8.5 -3.94,-8.5" fill="none" stroke="black" /></g>
<g transform="translate(213.01,-134.845) rotate(90)"><polygon points="3.655,-5.0 3.655,5.0 -3.655,5.0 -3.655,-5.0" fill="none" stroke="black" /></g>
<g transform="translate(109.25,-138.535) rotate(90)"><polygon points="3.655,-5.0 3.655,5.0 -3.655,5.0 -3.655,-5.0" fill="none" stroke="black" /></g>
<g transform="translate(146.38,-157.25) rotate(0)"><polygon points="4.5,-5.0 4.5,5.0 -4.5,5.0 -4.5,-5.0" fill="none" stroke="black" /></g>
<g transform="translate(227.045,-116.44) rotate(90)"><polygon points="5.0,-3.595 5.0,3.595 -5.0,3.595 -5.0,-3.595" fill="none" stroke="black" /></g>
<g transform="translate(227.045,-116.44) rotate(90)"><polygon points="-2.025,-0.87 2.025,-0.87 2.025,0.87 -2.025,0.87" fill="none" stroke="black" /></g>
<g transform="translate(213.605,-149.5) rotate(90)"><polygon points="5.0,-3.595 5.0,3.595 -5.0,3.595 -5.0,-3.595" fill="none" stroke="black" /></g>
<g transform="translate(213.605,-149.5) rotate(90)"><polygon points="-2.025,-0.87 2.025,-0.87 2.025,0.87 -2.025,0.87" fill="none" stroke="black" /></g>
<g transform="translate(240.55499999999998,-84.0) rotate(90)"><polygon points="6.0,-4.595 6.0,4.595 -6.0,4.595 -6.0,-4.595" fill="none" stroke="black" /></g>
<g transform="translate(240.55499999999998,-84.0) rotate(90)"><polygon points="-2.025,-0.87 2.025,-0.87 2.025,0.87 -2.025,0.87" fill="none" stroke="black" /></g>
<g transform="translate(255.74499999999998,-84.0) rotate(90)"><polygon points="6.0,-4.595 6.0,4.595 -6.0,4.595 -6.0,-4.595" fill="none" stroke="black" /></g>
<g transform="translate(255.74499999999998,-84.0) rotate(90)"><polygon points="-2.025,-0.87 2.025,-0.87 2.025,0.87 -2.025,0.87" fill="none" stroke="black" /></g>
<g transform="translate(244.26999999999998,-100.845) rotate(0)"><polygon points="6.0,-4.595 6.0,4.595 -6.0,4.595 -6.0,-4.595" fill="none" stroke="black" /></g>
<g transform="translate(244.26999999999998,-100.845) rotate(0)"><polygon points="-2.025,-0.87 2.025,-0.87 2.025,0.87 -2.025,0.87" fill="none" stroke="black" /></g>
<g transform="translate(226.795,-149.5) rotate(90)"><polygon points="5.0,-3.595 5.0,3.595 -5.0,3.595 -5.0,-3.595" fill="none" stroke="black" /></g>
<g transform="translate(226.795,-149.5) rotate(90)"><polygon points="-2.025,-0.87 2.025,-0.87 2.025,0.87 -2.025,0.87" fill="none" stroke="black" /></g>
<g transform="translate(227.105,-131.94) rotate(90)"><polygon points="4.5,-3.095 4.5,3.095 -4.5,3.095 -4.5,-3.095" fill="none" stroke="black" /></g>
<g transform="translate(227.105,-131.94) rotate(90)"><polygon points="-2.025,-0.87 2.025,-0.87 2.025,0.87 -2.025,0.87" fill="none" stroke="black" /></g>
    </g>
    <style>
        text {
            font: 1mm sans-serif;
            text-anchor: middle;
            dominant-baseline: middle;
        }
    </style>
    <g transform="scale(1, 1)" stroke-width="0.4" fill="#000">
        <text x="86.88" y="29.25">2</text>
<text x="86.88" y="87.25">4</text>
<text x="72.5" y="131.25">7</text>
<text x="78.25" y="155.5">9</text>
<text x="91.5" y="131.25">11</text>
<text x="108.25" y="155.5">13</text>
<text x="10.5" y="135.5">15</text>
<text x="31.5" y="135.5">16</text>
<text x="52.5" y="135.5">17</text>
<text x="233.01" y="37.5">19</text>
<text x="117.75" y="123.94">34</text>
<text x="130.94" y="148.63">37</text>
<text x="146.82" y="132.75">38</text>
<text x="179.54" y="129.25">39</text>
<text x="194.01" y="149.78">40</text>
<text x="163.26" y="129.25">41</text>
<text x="168.01" y="150.5">42</text>
<text x="212.73" y="119.19">43</text>
<text x="225.23999999999998" y="84.0">44</text>
<text x="182.73" y="85.0">45</text>
<text x="182.73" y="105.0">46</text>
<text x="196.29" y="125.0">47</text>
<text x="226.26999999999998" y="100.97">48</text>
<text x="202.95" y="104.095">50</text>
<text x="211.17499999999998" y="86.75">51</text>
<text x="198.14" y="86.75">52</text>
<text x="213.01" y="134.845">53</text>
<text x="109.25" y="138.535">54</text>
<text x="146.38" y="157.25">55</text>
<text x="227.045" y="116.44">56</text>
<text x="213.605" y="149.5">57</text>
<text x="240.55499999999998" y="84.0">58</text>
<text x="255.74499999999998" y="84.0">59</text>
<text x="244.26999999999998" y="100.845">60</text>
<text x="226.795" y="149.5">61</text>
<text x="227.105" y="131.94">62</text>
    </g>
</svg>
