<?xml version="1.0" encoding="UTF-8" standalone="no"?>
<svg
    xmlns:svg="http://www.w3.org/2000/svg"
    xmlns="http://www.w3.org/2000/svg"
    width="269.4mm"
    height="205.9mm"
    viewbox="0 0 269.4 205.9"
>
    <!-- <rect x="1" y="1" width="267.4" height="203.9" fill="transparent" stroke-width="0.02" stroke="#000" /> -->
    <rect x="0" y="0" width="269.4" height="205.9" fill="transparent" stroke-width="0.02" stroke="#000" />
    <g transform="scale(1, -1)" stroke-width="0.4" fill="none">
        <g transform="translate(82.94,-32.69) rotate(0)"><polygon points="79.94,-29.44 79.94,29.44 -79.94,29.44 -79.94,-29.44" fill="none" stroke="black" /></g>
<g transform="translate(86.88,-94.13) rotate(0)"><polygon points="83.88,-26.0 83.88,26.0 -83.88,26.0 -83.88,-26.0" fill="none" stroke="black" /></g>
<g transform="translate(82.94,-143.79) rotate(0)"><polygon points="79.94,-17.66 79.94,17.66 19.38,17.66 19.38,11.02 14.0,11.02 14.0,17.66 -30.62,17.66 -30.62,11.02 -36.0,11.02 -36.0,17.66 -79.94,17.66 -79.94,-17.66" fill="none" stroke="black" /></g>
<g transform="translate(194.67,-80.94) rotate(90)"><polygon points="77.94,13.28 77.94,17.66 36.0,17.66 36.0,11.02 30.62,11.02 30.62,17.66 -14.0,17.66 -14.0,11.02 -19.38,11.02 -19.38,17.66 -77.94,17.66 -77.94,13.28 -65.0,13.28 -65.0,-17.66 -12.5,-17.66 -12.5,13.28 2.5,13.28 2.5,-17.66 64.5,-17.66 64.5,13.28" fill="none" stroke="black" /></g>
<g transform="translate(194.67,-80.94) rotate(90)"><polygon points="40.0,-10.72 53.0,-10.72 53.0,13.28 40.0,13.28" fill="none" stroke="black" /></g>
<g transform="translate(194.67,-80.94) rotate(90)"><polygon points="13.0,-10.72 26.0,-10.72 26.0,13.28 13.0,13.28" fill="none" stroke="black" /></g>
<g transform="translate(194.67,-80.94) rotate(90)"><polygon points="-35.0,-10.72 -22.0,-10.72 -22.0,13.28 -35.0,13.28" fill="none" stroke="black" /></g>
<g transform="translate(194.67,-80.94) rotate(90)"><polygon points="-56.0,-10.72 -43.0,-10.72 -43.0,13.28 -56.0,13.28" fill="none" stroke="black" /></g>
    </g>
    <style>
        text {
            font: 1mm sans-serif;
            text-anchor: middle;
            dominant-baseline: middle;
        }
    </style>
    <g transform="scale(1, 1)" stroke-width="0.4" fill="#000">
        <text x="82.94" y="32.69">0</text>
<text x="86.88" y="94.13">1</text>
<text x="82.94" y="143.79">3</text>
<text x="194.67" y="80.94">6</text>
    </g>
</svg>
