<?xml version="1.0" encoding="UTF-8" standalone="no"?>
<svg
    xmlns:svg="http://www.w3.org/2000/svg"
    xmlns="http://www.w3.org/2000/svg"
    width="269.4mm"
    height="205.9mm"
    viewbox="0 0 269.4 205.9"
>
    <!-- <rect x="1" y="1" width="267.4" height="203.9" fill="transparent" stroke-width="0.02" stroke="#000" /> -->
    <rect x="0" y="0" width="269.4" height="205.9" fill="transparent" stroke-width="0.02" stroke="#000" />
    <g transform="scale(1, -1)" stroke-width="0.4" fill="none">
        <g transform="translate(30.0,-50.0) rotate(90)"><polygon points="41.62,-25.0 41.62,-15.0 45.0,-15.0 45.0,15.0 41.62,15.0 41.62,25.0 15.0,25.0 15.0,21.62 -15.0,21.62 -15.0,25.0 -41.62,25.0 -41.62,15.0 -45.0,15.0 -45.0,-15.0 -41.62,-15.0 -41.62,-25.0 -15.0,-25.0 -15.0,-21.62 15.0,-21.62 15.0,-25.0" fill="none" stroke="black" /></g>
<g transform="translate(30.0,-50.0) rotate(90)"><polygon points="31.62,10.0 31.62,-10.0 26.62,-15.0 -26.62,-15.0 -31.62,-10.0 -31.62,10.0 -26.62,15.0 26.62,15.0" fill="none" stroke="black" /></g>
<g transform="translate(50.0,-130.0) rotate(0)"><polygon points="41.62,-25.0 41.62,-15.0 45.0,-15.0 45.0,15.0 41.62,15.0 41.62,25.0 15.0,25.0 15.0,21.62 -15.0,21.62 -15.0,25.0 -41.62,25.0 -41.62,15.0 -45.0,15.0 -45.0,-15.0 -41.62,-15.0 -41.62,-25.0 -15.0,-25.0 -15.0,-21.62 15.0,-21.62 15.0,-25.0" fill="none" stroke="black" /></g>
<g transform="translate(50.0,-130.0) rotate(0)"><polygon points="31.62,10.0 31.62,-10.0 26.62,-15.0 -26.62,-15.0 -31.62,-10.0 -31.62,10.0 -26.62,15.0 26.62,15.0" fill="none" stroke="black" /></g>
<g transform="translate(90.0,-50.0) rotate(90)"><polygon points="41.62,-25.0 41.62,-15.0 45.0,-15.0 45.0,15.0 41.62,15.0 41.62,25.0 15.0,25.0 15.0,21.62 -15.0,21.62 -15.0,25.0 -41.62,25.0 -41.62,15.0 -45.0,15.0 -45.0,-15.0 -41.62,-15.0 -41.62,-25.0 -15.0,-25.0 -15.0,-21.62 15.0,-21.62 15.0,-25.0" fill="none" stroke="black" /></g>
<g transform="translate(90.0,-50.0) rotate(90)"><polygon points="31.62,10.0 31.62,-10.0 26.62,-15.0 -26.62,-15.0 -31.62,-10.0 -31.62,10.0 -26.62,15.0 26.62,15.0" fill="none" stroke="black" /></g>
<g transform="translate(140.0,-130.0) rotate(90)"><polygon points="25.0,-35.0 25.0,-15.0 21.62,-15.0 21.62,15.0 25.0,15.0 25.0,35.0 15.0,35.0 15.0,31.62 -15.0,31.62 -15.0,35.0 -25.0,35.0 -25.0,15.0 -21.62,15.0 -21.62,-15.0 -25.0,-15.0 -25.0,-35.0 -15.0,-35.0 -15.0,-31.62 15.0,-31.62 15.0,-35.0" fill="none" stroke="black" /></g>
<g transform="translate(140.0,-130.0) rotate(90)"><polygon points="15.0,20.0 15.0,-20.0 10.0,-25.0 -10.0,-25.0 -15.0,-20.0 -15.0,20.0 -10.0,25.0 10.0,25.0" fill="none" stroke="black" /></g>
<g transform="translate(220.0,-30.0) rotate(90)"><polygon points="25.0,-35.0 25.0,-15.0 21.62,-15.0 21.62,15.0 25.0,15.0 25.0,35.0 15.0,35.0 15.0,31.62 -15.0,31.62 -15.0,35.0 -25.0,35.0 -25.0,15.0 -21.62,15.0 -21.62,-15.0 -25.0,-15.0 -25.0,-35.0 -15.0,-35.0 -15.0,-31.62 15.0,-31.62 15.0,-35.0" fill="none" stroke="black" /></g>
<g transform="translate(220.0,-30.0) rotate(90)"><polygon points="15.0,20.0 15.0,-20.0 10.0,-25.0 -10.0,-25.0 -15.0,-20.0 -15.0,20.0 -10.0,25.0 10.0,25.0" fill="none" stroke="black" /></g>
<g transform="translate(150.0,-40.0) rotate(0)"><polygon points="25.0,-35.0 25.0,-15.0 21.62,-15.0 21.62,15.0 25.0,15.0 25.0,35.0 15.0,35.0 15.0,31.62 -15.0,31.62 -15.0,35.0 -25.0,35.0 -25.0,15.0 -21.62,15.0 -21.62,-15.0 -25.0,-15.0 -25.0,-35.0 -15.0,-35.0 -15.0,-31.62 15.0,-31.62 15.0,-35.0" fill="none" stroke="black" /></g>
<g transform="translate(150.0,-40.0) rotate(0)"><polygon points="15.0,20.0 15.0,-20.0 10.0,-25.0 -10.0,-25.0 -15.0,-20.0 -15.0,20.0 -10.0,25.0 10.0,25.0" fill="none" stroke="black" /></g>
<g transform="translate(220.0,-90.0) rotate(90)"><polygon points="25.0,-35.0 25.0,-15.0 21.62,-15.0 21.62,15.0 25.0,15.0 25.0,35.0 15.0,35.0 15.0,31.62 -15.0,31.62 -15.0,35.0 -25.0,35.0 -25.0,15.0 -21.62,15.0 -21.62,-15.0 -25.0,-15.0 -25.0,-35.0 -15.0,-35.0 -15.0,-31.62 15.0,-31.62 15.0,-35.0" fill="none" stroke="black" /></g>
<g transform="translate(220.0,-90.0) rotate(90)"><polygon points="15.0,20.0 15.0,-20.0 10.0,-25.0 -10.0,-25.0 -15.0,-20.0 -15.0,20.0 -10.0,25.0 10.0,25.0" fill="none" stroke="black" /></g>
    </g>
</svg>
