<?xml version="1.0" encoding="UTF-8" standalone="no"?>
<svg
    xmlns:svg="http://www.w3.org/2000/svg"
    xmlns="http://www.w3.org/2000/svg"
    width="269.4mm"
    height="205.9mm"
    viewbox="0 0 269.4 205.9"
>
    <!-- <rect x="1" y="1" width="267.4" height="203.9" fill="transparent" stroke-width="0.02" stroke="#000" /> -->
    <rect x="0" y="0" width="269.4" height="205.9" fill="transparent" stroke-width="0.02" stroke="#000" />
    <g transform="scale(1, -1)" stroke-width="0.4" fill="none">
        <g transform="translate(148.63,-18.75) rotate(90)"><polygon points="-18.0,-12.5 -15.0,-12.5 -15.0,-28.0 15.0,-28.0 15.0,-22.62 -7.62,-22.62 -12.62,-17.62 -12.62,17.62 -7.62,22.62 15.0,22.62 15.0,28.0 -15.0,28.0 -15.0,12.5 -18.0,12.5" fill="none" stroke="black" /></g>
<g transform="translate(210.63,-18.75) rotate(90)"><polygon points="-18.0,-12.5 -15.0,-12.5 -15.0,-28.0 15.0,-28.0 15.0,-22.62 -7.62,-22.62 -12.62,-17.62 -12.62,17.62 -7.62,22.62 15.0,22.62 15.0,28.0 -15.0,28.0 -15.0,12.5 -18.0,12.5" fill="none" stroke="black" /></g>
<g transform="translate(34.25,-37.5) rotate(90)"><polygon points="34.5,-31.0 34.5,31.0 -1.12,31.0 -1.12,27.62 -21.12,27.62 -21.12,31.0 -34.5,31.0 -34.5,10.0 -31.12,10.0 -31.12,-10.0 -34.5,-10.0 -34.5,-31.0 -21.12,-31.0 -21.12,-27.62 -1.12,-27.62 -1.12,-31.0" fill="none" stroke="black" /></g>
<g transform="translate(34.25,-37.5) rotate(90)"><polygon points="26.12,17.62 26.12,-17.62 21.12,-22.62 -21.12,-22.62 -26.12,-17.62 -26.12,17.62 -21.12,22.62 10.5,22.62 10.5,24.0 12.5,26.0 17.5,26.0 19.5,24.0 19.5,22.62 21.12,22.62" fill="none" stroke="black" /></g>
<g transform="translate(34.25,-112.5) rotate(90)"><polygon points="34.5,-31.0 34.5,31.0 -1.12,31.0 -1.12,27.62 -21.12,27.62 -21.12,31.0 -34.5,31.0 -34.5,10.0 -31.12,10.0 -31.12,-10.0 -34.5,-10.0 -34.5,-31.0 -21.12,-31.0 -21.12,-27.62 -1.12,-27.62 -1.12,-31.0" fill="none" stroke="black" /></g>
<g transform="translate(34.25,-112.5) rotate(90)"><polygon points="26.12,17.62 26.12,-17.62 21.12,-22.62 -21.12,-22.62 -26.12,-17.62 -26.12,17.62 -21.12,22.62 10.5,22.62 10.5,24.0 12.5,26.0 17.5,26.0 19.5,24.0 19.5,22.62 21.12,22.62" fill="none" stroke="black" /></g>
<g transform="translate(140.54915971,-61.568516530000004) rotate(0)"><polygon points="10.0,-22.69851653 10.0,-19.31851653 20.0,-19.31851653 9.6472382,19.31851653 -9.6472382,19.31851653 -12.23542865,9.65925826 -15.50025794,10.53406664 -20.67663884,-8.78444989 -17.41180955,-9.65925826 -20.0,-19.31851653 -10.0,-19.31851653 -10.0,-22.69851653" fill="none" stroke="black" /></g>
<g transform="translate(140.54915971,-61.568516530000004) rotate(0)"><polygon points="-4.8236191,9.65925826 -10.0,-9.65925826 10.0,-9.65925826 4.8236191,9.65925826" fill="none" stroke="black" /></g>
<g transform="translate(140.54915971,-109.58554959) rotate(0)"><polygon points="10.0,-22.69851653 10.0,-19.31851653 20.0,-19.31851653 9.6472382,19.31851653 -9.6472382,19.31851653 -12.23542865,9.65925826 -15.50025794,10.53406664 -20.67663884,-8.78444989 -17.41180955,-9.65925826 -20.0,-19.31851653 -10.0,-19.31851653 -10.0,-22.69851653" fill="none" stroke="black" /></g>
<g transform="translate(140.54915971,-109.58554959) rotate(0)"><polygon points="-4.8236191,9.65925826 -10.0,-9.65925826 10.0,-9.65925826 4.8236191,9.65925826" fill="none" stroke="black" /></g>
<g transform="translate(186.62515537000002,-62.16915971) rotate(90)"><polygon points="10.0,-22.69851653 10.0,-19.31851653 20.0,-19.31851653 9.6472382,19.31851653 -9.6472382,19.31851653 -12.23542865,9.65925826 -15.50025794,10.53406664 -20.67663884,-8.78444989 -17.41180955,-9.65925826 -20.0,-19.31851653 -10.0,-19.31851653 -10.0,-22.69851653" fill="none" stroke="black" /></g>
<g transform="translate(186.62515537000002,-62.16915971) rotate(90)"><polygon points="-4.8236191,9.65925826 -10.0,-9.65925826 10.0,-9.65925826 4.8236191,9.65925826" fill="none" stroke="black" /></g>
<g transform="translate(234.64218843000003,-62.16915971) rotate(90)"><polygon points="10.0,-22.69851653 10.0,-19.31851653 20.0,-19.31851653 9.6472382,19.31851653 -9.6472382,19.31851653 -12.23542865,9.65925826 -15.50025794,10.53406664 -20.67663884,-8.78444989 -17.41180955,-9.65925826 -20.0,-19.31851653 -10.0,-19.31851653 -10.0,-22.69851653" fill="none" stroke="black" /></g>
<g transform="translate(234.64218843000003,-62.16915971) rotate(90)"><polygon points="-4.8236191,9.65925826 -10.0,-9.65925826 10.0,-9.65925826 4.8236191,9.65925826" fill="none" stroke="black" /></g>
<g transform="translate(91.25,-34.0) rotate(90)"><polygon points="10.0,-23.38 10.0,-20.0 31.0,-20.0 31.0,-10.0 27.62,-10.0 27.62,10.0 31.0,10.0 31.0,20.0 -31.0,20.0 -31.0,10.0 -27.62,10.0 -27.62,-10.0 -31.0,-10.0 -31.0,-20.0 -10.0,-20.0 -10.0,-23.38" fill="none" stroke="black" /></g>
<g transform="translate(91.25,-34.0) rotate(90)"><polygon points="-6.46715673,7.67878403 -6.86549696,6.36563225 -7.0,5.0 -6.86549696,3.63436775 -6.46715673,2.32121597 -5.82028729,1.11100837 -4.94974747,0.05025253 -3.88899163,-0.82028729 -2.67878403,-1.46715673 -1.36563225,-1.86549696 0.0,-2.0 1.36563225,-1.86549696 2.67878403,-1.46715673 3.88899163,-0.82028729 4.94974747,0.05025253 5.82028729,1.11100837 6.46715673,2.32121597 6.86549696,3.63436775 7.0,5.0 6.86549696,6.36563225 6.46715673,7.67878403 5.82028729,8.88899163 4.94974747,9.94974747 3.88899163,10.82028729 2.67878403,11.46715673 1.36563225,11.86549696 -0.0,12.0 -1.36563225,11.86549696 -2.67878403,11.46715673 -3.88899163,10.82028729 -4.94974747,9.94974747 -5.82028729,8.88899163" fill="none" stroke="black" /></g>
<g transform="translate(91.25,-102.0) rotate(90)"><polygon points="10.0,-23.38 10.0,-20.0 31.0,-20.0 31.0,-10.0 27.62,-10.0 27.62,10.0 31.0,10.0 31.0,20.0 -31.0,20.0 -31.0,10.0 -27.62,10.0 -27.62,-10.0 -31.0,-10.0 -31.0,-20.0 -10.0,-20.0 -10.0,-23.38" fill="none" stroke="black" /></g>
<g transform="translate(91.25,-102.0) rotate(90)"><polygon points="-6.46715673,7.67878403 -6.86549696,6.36563225 -7.0,5.0 -6.86549696,3.63436775 -6.46715673,2.32121597 -5.82028729,1.11100837 -4.94974747,0.05025253 -3.88899163,-0.82028729 -2.67878403,-1.46715673 -1.36563225,-1.86549696 0.0,-2.0 1.36563225,-1.86549696 2.67878403,-1.46715673 3.88899163,-0.82028729 4.94974747,0.05025253 5.82028729,1.11100837 6.46715673,2.32121597 6.86549696,3.63436775 7.0,5.0 6.86549696,6.36563225 6.46715673,7.67878403 5.82028729,8.88899163 4.94974747,9.94974747 3.88899163,10.82028729 2.67878403,11.46715673 1.36563225,11.86549696 -0.0,12.0 -1.36563225,11.86549696 -2.67878403,11.46715673 -3.88899163,10.82028729 -4.94974747,9.94974747 -5.82028729,8.88899163" fill="none" stroke="black" /></g>
    </g>
    <style>
        text {
            font: 1mm sans-serif;
            text-anchor: middle;
            dominant-baseline: middle;
        }
    </style>
    <g transform="scale(1, 1)" stroke-width="0.4" fill="#000">
        <text x="148.63" y="18.75">0</text>
<text x="210.63" y="18.75">1</text>
<text x="34.25" y="37.5">2</text>
<text x="34.25" y="112.5">3</text>
<text x="140.54915971" y="61.568516530000004">4</text>
<text x="140.54915971" y="109.58554959">5</text>
<text x="186.62515537000002" y="62.16915971">6</text>
<text x="234.64218843000003" y="62.16915971">7</text>
<text x="91.25" y="34.0">8</text>
<text x="91.25" y="102.0">9</text>
    </g>
</svg>
