<?xml version="1.0" encoding="UTF-8" standalone="no"?>
<svg
    xmlns:svg="http://www.w3.org/2000/svg"
    xmlns="http://www.w3.org/2000/svg"
    width="269.4mm"
    height="205.9mm"
    viewbox="0 0 269.4 205.9"
>
    <!-- <rect x="1" y="1" width="267.4" height="203.9" fill="transparent" stroke-width="0.02" stroke="#000" /> -->
    <rect x="0" y="0" width="269.4" height="205.9" fill="transparent" stroke-width="0.02" stroke="#000" />
    <g transform="scale(1, -1)" stroke-width="0.4" fill="none">
        <g transform="translate(26.6089,-50.0) rotate(90)"><polygon points="45.0,5.871 41.62,5.871 41.62,8.0489 35.55,8.0489 35.55,21.3589 15.0,21.3589 15.0,17.9789 -15.0,17.9789 -15.0,21.3589 -41.62,21.3589 -41.62,13.31 -45.0,13.31 -45.0,-16.69 -41.62,-16.69 -41.62,-21.3589 -15.0,-21.3589 -15.0,-24.7389 15.0,-24.7389 15.0,-21.3589 41.62,-21.3589 41.62,-19.129 45.0,-19.129" fill="none" stroke="black" /></g>
<g transform="translate(26.6089,-50.0) rotate(90)"><polygon points="31.4244,5.0057 31.4244,-7.712 26.4244,-12.712 -26.8156,-12.712 -31.8156,-7.712 -31.8156,5.0057 -26.8156,10.0057 26.4244,10.0057" fill="none" stroke="black" /></g>
<g transform="translate(50.0,-126.6089) rotate(0)"><polygon points="45.0,5.871 41.62,5.871 41.62,8.0489 35.55,8.0489 35.55,21.3589 15.0,21.3589 15.0,17.9789 -15.0,17.9789 -15.0,21.3589 -41.62,21.3589 -41.62,13.31 -45.0,13.31 -45.0,-16.69 -41.62,-16.69 -41.62,-21.3589 -15.0,-21.3589 -15.0,-24.7389 15.0,-24.7389 15.0,-21.3589 41.62,-21.3589 41.62,-19.129 45.0,-19.129" fill="none" stroke="black" /></g>
<g transform="translate(50.0,-126.6089) rotate(0)"><polygon points="31.4244,5.0057 31.4244,-7.712 26.4244,-12.712 -26.8156,-12.712 -31.8156,-7.712 -31.8156,5.0057 -26.8156,10.0057 26.4244,10.0057" fill="none" stroke="black" /></g>
<g transform="translate(84.37950000000001,-50.0) rotate(90)"><polygon points="45.0,17.439 41.62,17.439 41.62,19.6517 15.0,19.6517 15.0,23.0317 -15.0,23.0317 -15.0,19.6517 -41.62,19.6517 -41.62,15.0 -45.0,15.0 -45.0,-15.0 -41.62,-15.0 -41.62,-19.6517 -15.0,-19.6517 -15.0,-23.0317 15.0,-23.0317 15.0,-19.6517 35.55,-19.6517 35.55,-9.5489 41.62,-9.5489 41.62,-7.561 45.0,-7.561" fill="none" stroke="black" /></g>
<g transform="translate(84.37950000000001,-50.0) rotate(90)"><polygon points="31.42,4.7657 31.42,-4.5377 26.42,-9.5377 -26.82,-9.5377 -31.82,-4.5377 -31.82,4.7657 -26.82,9.7657 26.42,9.7657" fill="none" stroke="black" /></g>
<g transform="translate(150.0,-128.2817) rotate(0)"><polygon points="45.0,17.439 41.62,17.439 41.62,19.6517 15.0,19.6517 15.0,23.0317 -15.0,23.0317 -15.0,19.6517 -41.62,19.6517 -41.62,15.0 -45.0,15.0 -45.0,-15.0 -41.62,-15.0 -41.62,-19.6517 -15.0,-19.6517 -15.0,-23.0317 15.0,-23.0317 15.0,-19.6517 35.55,-19.6517 35.55,-9.5489 41.62,-9.5489 41.62,-7.561 45.0,-7.561" fill="none" stroke="black" /></g>
<g transform="translate(150.0,-128.2817) rotate(0)"><polygon points="31.42,4.7657 31.42,-4.5377 26.42,-9.5377 -26.82,-9.5377 -31.82,-4.5377 -31.82,4.7657 -26.82,9.7657 26.42,9.7657" fill="none" stroke="black" /></g>
    </g>
</svg>
