<?xml version="1.0" encoding="UTF-8" standalone="no"?>
<svg
    xmlns:svg="http://www.w3.org/2000/svg"
    xmlns="http://www.w3.org/2000/svg"
    width="269.4mm"
    height="205.9mm"
    viewbox="0 0 269.4 205.9"
>
    <!-- <rect x="1" y="1" width="267.4" height="203.9" fill="transparent" stroke-width="0.02" stroke="#000" /> -->
    <rect x="0" y="0" width="269.4" height="205.9" fill="transparent" stroke-width="0.02" stroke="#000" />
    <g transform="scale(1, -1)" stroke-width="0.4" fill="none">
        <g transform="translate(28.25,-48.0) rotate(90)"><polygon points="45.0,-25.0 45.0,25.0 -45.0,25.0 -45.0,-25.0" fill="none" stroke="black" /></g>
<g transform="translate(28.25,-48.0) rotate(90)"><polygon points="13.0,-11.5 27.0,-11.5 27.0,11.5 13.0,11.5" fill="none" stroke="black" /></g>
<g transform="translate(28.25,-48.0) rotate(90)"><polygon points="-27.0,-11.5 -13.0,-11.5 -13.0,11.5 -27.0,11.5" fill="none" stroke="black" /></g>
<g transform="translate(48.0,-124.25) rotate(0)"><polygon points="45.0,-25.0 45.0,25.0 -45.0,25.0 -45.0,-25.0" fill="none" stroke="black" /></g>
<g transform="translate(48.0,-124.25) rotate(0)"><polygon points="13.0,-11.5 27.0,-11.5 27.0,11.5 13.0,11.5" fill="none" stroke="black" /></g>
<g transform="translate(48.0,-124.25) rotate(0)"><polygon points="-27.0,-11.5 -13.0,-11.5 -13.0,11.5 -27.0,11.5" fill="none" stroke="black" /></g>
<g transform="translate(84.25,-48.0) rotate(90)"><polygon points="45.0,-25.0 45.0,25.0 -45.0,25.0 -45.0,-25.0" fill="none" stroke="black" /></g>
<g transform="translate(84.25,-48.0) rotate(90)"><polygon points="8.0,-16.5 32.0,-16.5 32.0,16.5 8.0,16.5" fill="none" stroke="black" /></g>
<g transform="translate(84.25,-48.0) rotate(90)"><polygon points="-32.0,-16.5 -8.0,-16.5 -8.0,16.5 -32.0,16.5" fill="none" stroke="black" /></g>
<g transform="translate(243.75,-15.0) rotate(90)"><polygon points="12.0,-16.5 12.0,16.5 -12.0,16.5 -12.0,-16.5" fill="none" stroke="black" /></g>
<g transform="translate(243.75,-15.0) rotate(90)"><polygon points="-6.0,-10.0 -6.0,-0.375 -0.375,-0.375 -0.375,-10.0" fill="none" stroke="black" /></g>
<g transform="translate(243.75,-15.0) rotate(90)"><polygon points="-6.0,0.375 -6.0,10.0 -0.375,10.0 -0.375,0.375" fill="none" stroke="black" /></g>
<g transform="translate(243.75,-15.0) rotate(90)"><polygon points="0.375,0.375 0.375,10.0 6.0,10.0 6.0,0.375" fill="none" stroke="black" /></g>
<g transform="translate(243.75,-15.0) rotate(90)"><polygon points="6.0,-10.0 6.0,-0.375 0.375,-0.375 0.375,-10.0" fill="none" stroke="black" /></g>
<g transform="translate(11.5,-156.25) rotate(0)"><polygon points="8.5,-1.0 8.5,1.0 -8.5,1.0 -8.5,-1.0" fill="none" stroke="black" /></g>
<g transform="translate(243.75,-45.0) rotate(90)"><polygon points="12.0,-16.5 12.0,16.5 -12.0,16.5 -12.0,-16.5" fill="none" stroke="black" /></g>
<g transform="translate(243.75,-45.0) rotate(90)"><polygon points="-6.0,-10.0 -6.0,-0.375 -0.375,-0.375 -0.375,-10.0" fill="none" stroke="black" /></g>
<g transform="translate(243.75,-45.0) rotate(90)"><polygon points="-6.0,0.375 -6.0,10.0 -0.375,10.0 -0.375,0.375" fill="none" stroke="black" /></g>
<g transform="translate(243.75,-45.0) rotate(90)"><polygon points="0.375,0.375 0.375,10.0 6.0,10.0 6.0,0.375" fill="none" stroke="black" /></g>
<g transform="translate(243.75,-45.0) rotate(90)"><polygon points="6.0,-10.0 6.0,-0.375 0.375,-0.375 0.375,-10.0" fill="none" stroke="black" /></g>
<g transform="translate(34.5,-156.25) rotate(0)"><polygon points="8.5,-1.0 8.5,1.0 -8.5,1.0 -8.5,-1.0" fill="none" stroke="black" /></g>
<g transform="translate(144.0,-124.25) rotate(0)"><polygon points="45.0,-25.0 45.0,25.0 -45.0,25.0 -45.0,-25.0" fill="none" stroke="black" /></g>
<g transform="translate(144.0,-124.25) rotate(0)"><polygon points="13.0,-11.5 27.0,-11.5 27.0,11.5 13.0,11.5" fill="none" stroke="black" /></g>
<g transform="translate(144.0,-124.25) rotate(0)"><polygon points="-27.0,-11.5 -13.0,-11.5 -13.0,11.5 -27.0,11.5" fill="none" stroke="black" /></g>
<g transform="translate(140.25,-48.0) rotate(90)"><polygon points="45.0,-25.0 45.0,25.0 -45.0,25.0 -45.0,-25.0" fill="none" stroke="black" /></g>
<g transform="translate(140.25,-48.0) rotate(90)"><polygon points="13.0,-11.5 27.0,-11.5 27.0,11.5 13.0,11.5" fill="none" stroke="black" /></g>
<g transform="translate(140.25,-48.0) rotate(90)"><polygon points="-27.0,-11.5 -13.0,-11.5 -13.0,11.5 -27.0,11.5" fill="none" stroke="black" /></g>
<g transform="translate(196.25,-48.0) rotate(90)"><polygon points="45.0,-25.0 45.0,25.0 -45.0,25.0 -45.0,-25.0" fill="none" stroke="black" /></g>
<g transform="translate(196.25,-48.0) rotate(90)"><polygon points="8.0,-16.5 32.0,-16.5 32.0,16.5 8.0,16.5" fill="none" stroke="black" /></g>
<g transform="translate(196.25,-48.0) rotate(90)"><polygon points="-32.0,-16.5 -8.0,-16.5 -8.0,16.5 -32.0,16.5" fill="none" stroke="black" /></g>
<g transform="translate(243.75,-75.0) rotate(90)"><polygon points="12.0,-16.5 12.0,16.5 -12.0,16.5 -12.0,-16.5" fill="none" stroke="black" /></g>
<g transform="translate(243.75,-75.0) rotate(90)"><polygon points="-6.0,-10.0 -6.0,-0.375 -0.375,-0.375 -0.375,-10.0" fill="none" stroke="black" /></g>
<g transform="translate(243.75,-75.0) rotate(90)"><polygon points="-6.0,0.375 -6.0,10.0 -0.375,10.0 -0.375,0.375" fill="none" stroke="black" /></g>
<g transform="translate(243.75,-75.0) rotate(90)"><polygon points="0.375,0.375 0.375,10.0 6.0,10.0 6.0,0.375" fill="none" stroke="black" /></g>
<g transform="translate(243.75,-75.0) rotate(90)"><polygon points="6.0,-10.0 6.0,-0.375 0.375,-0.375 0.375,-10.0" fill="none" stroke="black" /></g>
<g transform="translate(57.5,-156.25) rotate(0)"><polygon points="8.5,-1.0 8.5,1.0 -8.5,1.0 -8.5,-1.0" fill="none" stroke="black" /></g>
<g transform="translate(243.75,-105.0) rotate(90)"><polygon points="12.0,-16.5 12.0,16.5 -12.0,16.5 -12.0,-16.5" fill="none" stroke="black" /></g>
<g transform="translate(243.75,-105.0) rotate(90)"><polygon points="-6.0,-10.0 -6.0,-0.375 -0.375,-0.375 -0.375,-10.0" fill="none" stroke="black" /></g>
<g transform="translate(243.75,-105.0) rotate(90)"><polygon points="-6.0,0.375 -6.0,10.0 -0.375,10.0 -0.375,0.375" fill="none" stroke="black" /></g>
<g transform="translate(243.75,-105.0) rotate(90)"><polygon points="0.375,0.375 0.375,10.0 6.0,10.0 6.0,0.375" fill="none" stroke="black" /></g>
<g transform="translate(243.75,-105.0) rotate(90)"><polygon points="6.0,-10.0 6.0,-0.375 0.375,-0.375 0.375,-10.0" fill="none" stroke="black" /></g>
<g transform="translate(80.5,-156.25) rotate(0)"><polygon points="8.5,-1.0 8.5,1.0 -8.5,1.0 -8.5,-1.0" fill="none" stroke="black" /></g>
    </g>
</svg>
