<?xml version="1.0" encoding="UTF-8" standalone="no"?>
<svg
    xmlns:svg="http://www.w3.org/2000/svg"
    xmlns="http://www.w3.org/2000/svg"
    width="269.4mm"
    height="205.9mm"
    viewbox="0 0 269.4 205.9"
>
    <!-- <rect x="1" y="1" width="267.4" height="203.9" fill="transparent" stroke-width="0.02" stroke="#000" /> -->
    <rect x="0" y="0" width="269.4" height="205.9" fill="transparent" stroke-width="0.02" stroke="#000" />
    <g transform="scale(1, -1)" stroke-width="0.4" fill="none">
        <g transform="translate(30.79886114,-55.0) rotate(90)"><polygon points="50.0,-25.54886114 50.0,25.54886114 -50.0,25.54886114 -50.0,-25.54886114" fill="none" stroke="black" /></g>
<g transform="translate(6.9399999999999995,-117.8621428575) rotate(90)"><polygon points="0.0,0.0 -11.44857143,0.0 -10.0,1.69 0.0,1.69" fill="none" stroke="black" /></g>
<g transform="translate(6.9399999999999995,-139.31071428750002) rotate(90)"><polygon points="0.0,0.0 -11.44857143,0.0 -10.0,1.69 0.0,1.69" fill="none" stroke="black" /></g>
<g transform="translate(7.8621428575,-159.83714286000003) rotate(0)"><polygon points="0.0,0.0 -11.44857143,0.0 -10.0,1.69 0.0,1.69" fill="none" stroke="black" /></g>
<g transform="translate(18.63,-117.8621428575) rotate(90)"><polygon points="0.0,0.0 -11.44857143,0.0 -10.0,1.69 0.0,1.69" fill="none" stroke="black" /></g>
<g transform="translate(18.63,-139.31071428750002) rotate(90)"><polygon points="0.0,0.0 -11.44857143,0.0 -10.0,1.69 0.0,1.69" fill="none" stroke="black" /></g>
<g transform="translate(29.3107142875,-159.83714286000003) rotate(0)"><polygon points="0.0,0.0 -11.44857143,0.0 -10.0,1.69 0.0,1.69" fill="none" stroke="black" /></g>
<g transform="translate(30.32,-117.8621428575) rotate(90)"><polygon points="0.0,0.0 -11.44857143,0.0 -10.0,1.69 0.0,1.69" fill="none" stroke="black" /></g>
<g transform="translate(30.32,-139.31071428750002) rotate(90)"><polygon points="0.0,0.0 -11.44857143,0.0 -10.0,1.69 0.0,1.69" fill="none" stroke="black" /></g>
<g transform="translate(42.01,-117.8621428575) rotate(90)"><polygon points="0.0,0.0 -11.44857143,0.0 -10.0,1.69 0.0,1.69" fill="none" stroke="black" /></g>
<g transform="translate(42.01,-139.31071428750002) rotate(90)"><polygon points="0.0,0.0 -11.44857143,0.0 -10.0,1.69 0.0,1.69" fill="none" stroke="black" /></g>
<g transform="translate(50.759285717500006,-159.83714286000003) rotate(0)"><polygon points="0.0,0.0 -11.44857143,0.0 -10.0,1.69 0.0,1.69" fill="none" stroke="black" /></g>
<g transform="translate(53.699999999999996,-117.8621428575) rotate(90)"><polygon points="0.0,0.0 -11.44857143,0.0 -10.0,1.69 0.0,1.69" fill="none" stroke="black" /></g>
<g transform="translate(53.699999999999996,-139.31071428750002) rotate(90)"><polygon points="0.0,0.0 -11.44857143,0.0 -10.0,1.69 0.0,1.69" fill="none" stroke="black" /></g>
<g transform="translate(65.39,-117.8621428575) rotate(90)"><polygon points="0.0,0.0 -11.44857143,0.0 -10.0,1.69 0.0,1.69" fill="none" stroke="black" /></g>
<g transform="translate(65.39,-139.31071428750002) rotate(90)"><polygon points="0.0,0.0 -11.44857143,0.0 -10.0,1.69 0.0,1.69" fill="none" stroke="black" /></g>
<g transform="translate(72.20785714750001,-159.83714286000003) rotate(0)"><polygon points="0.0,0.0 -11.44857143,0.0 -10.0,1.69 0.0,1.69" fill="none" stroke="black" /></g>
<g transform="translate(68.03772228,-7.8621428575) rotate(90)"><polygon points="0.0,0.0 -11.44857143,0.0 -10.0,1.69 0.0,1.69" fill="none" stroke="black" /></g>
<g transform="translate(68.03772228,-29.3107142875) rotate(90)"><polygon points="0.0,0.0 -11.44857143,0.0 -10.0,1.69 0.0,1.69" fill="none" stroke="black" /></g>
<g transform="translate(68.03772228,-50.759285717500006) rotate(90)"><polygon points="0.0,0.0 -11.44857143,0.0 -10.0,1.69 0.0,1.69" fill="none" stroke="black" /></g>
<g transform="translate(68.03772228,-72.20785714750001) rotate(90)"><polygon points="0.0,0.0 -11.44857143,0.0 -10.0,1.69 0.0,1.69" fill="none" stroke="black" /></g>
<g transform="translate(68.03772228,-93.65642857750001) rotate(90)"><polygon points="0.0,0.0 -11.44857143,0.0 -10.0,1.69 0.0,1.69" fill="none" stroke="black" /></g>
<g transform="translate(77.08,-115.10500000750001) rotate(90)"><polygon points="0.0,0.0 -11.44857143,0.0 -10.0,1.69 0.0,1.69" fill="none" stroke="black" /></g>
<g transform="translate(77.08,-136.5535714375) rotate(90)"><polygon points="0.0,0.0 -11.44857143,0.0 -10.0,1.69 0.0,1.69" fill="none" stroke="black" /></g>
<g transform="translate(79.72772228,-7.8621428575) rotate(90)"><polygon points="0.0,0.0 -11.44857143,0.0 -10.0,1.69 0.0,1.69" fill="none" stroke="black" /></g>
<g transform="translate(79.72772228,-29.3107142875) rotate(90)"><polygon points="0.0,0.0 -11.44857143,0.0 -10.0,1.69 0.0,1.69" fill="none" stroke="black" /></g>
<g transform="translate(79.72772228,-50.759285717500006) rotate(90)"><polygon points="0.0,0.0 -11.44857143,0.0 -10.0,1.69 0.0,1.69" fill="none" stroke="black" /></g>
<g transform="translate(79.72772228,-72.20785714750001) rotate(90)"><polygon points="0.0,0.0 -11.44857143,0.0 -10.0,1.69 0.0,1.69" fill="none" stroke="black" /></g>
<g transform="translate(79.72772228,-93.65642857750001) rotate(90)"><polygon points="0.0,0.0 -11.44857143,0.0 -10.0,1.69 0.0,1.69" fill="none" stroke="black" /></g>
<g transform="translate(88.77,-115.10500000750001) rotate(90)"><polygon points="0.0,0.0 -11.44857143,0.0 -10.0,1.69 0.0,1.69" fill="none" stroke="black" /></g>
<g transform="translate(88.77,-136.5535714375) rotate(90)"><polygon points="0.0,0.0 -11.44857143,0.0 -10.0,1.69 0.0,1.69" fill="none" stroke="black" /></g>
<g transform="translate(93.65642857750001,-157.08000001) rotate(0)"><polygon points="0.0,0.0 -11.44857143,0.0 -10.0,1.69 0.0,1.69" fill="none" stroke="black" /></g>
<g transform="translate(91.41772227999999,-7.8621428575) rotate(90)"><polygon points="0.0,0.0 -11.44857143,0.0 -10.0,1.69 0.0,1.69" fill="none" stroke="black" /></g>
<g transform="translate(91.41772227999999,-29.3107142875) rotate(90)"><polygon points="0.0,0.0 -11.44857143,0.0 -10.0,1.69 0.0,1.69" fill="none" stroke="black" /></g>
<g transform="translate(91.41772227999999,-50.759285717500006) rotate(90)"><polygon points="0.0,0.0 -11.44857143,0.0 -10.0,1.69 0.0,1.69" fill="none" stroke="black" /></g>
<g transform="translate(91.41772227999999,-72.20785714750001) rotate(90)"><polygon points="0.0,0.0 -11.44857143,0.0 -10.0,1.69 0.0,1.69" fill="none" stroke="black" /></g>
<g transform="translate(91.41772227999999,-93.65642857750001) rotate(90)"><polygon points="0.0,0.0 -11.44857143,0.0 -10.0,1.69 0.0,1.69" fill="none" stroke="black" /></g>
<g transform="translate(100.46,-115.10500000750001) rotate(90)"><polygon points="0.0,0.0 -11.44857143,0.0 -10.0,1.69 0.0,1.69" fill="none" stroke="black" /></g>
<g transform="translate(101.3821428575,-135.63142858) rotate(0)"><polygon points="0.0,0.0 -11.44857143,0.0 -10.0,1.69 0.0,1.69" fill="none" stroke="black" /></g>
<g transform="translate(114.18285715,-148.2435714375) rotate(90)"><polygon points="0.0,0.0 -11.44857143,0.0 -10.0,1.69 0.0,1.69" fill="none" stroke="black" /></g>
<g transform="translate(103.10772227999999,-7.8621428575) rotate(90)"><polygon points="0.0,0.0 -11.44857143,0.0 -10.0,1.69 0.0,1.69" fill="none" stroke="black" /></g>
<g transform="translate(103.10772227999999,-29.3107142875) rotate(90)"><polygon points="0.0,0.0 -11.44857143,0.0 -10.0,1.69 0.0,1.69" fill="none" stroke="black" /></g>
<g transform="translate(103.10772227999999,-50.759285717500006) rotate(90)"><polygon points="0.0,0.0 -11.44857143,0.0 -10.0,1.69 0.0,1.69" fill="none" stroke="black" /></g>
<g transform="translate(103.10772227999999,-72.20785714750001) rotate(90)"><polygon points="0.0,0.0 -11.44857143,0.0 -10.0,1.69 0.0,1.69" fill="none" stroke="black" /></g>
<g transform="translate(103.10772227999999,-93.65642857750001) rotate(90)"><polygon points="0.0,0.0 -11.44857143,0.0 -10.0,1.69 0.0,1.69" fill="none" stroke="black" /></g>
<g transform="translate(112.14999999999999,-115.10500000750001) rotate(90)"><polygon points="0.0,0.0 -11.44857143,0.0 -10.0,1.69 0.0,1.69" fill="none" stroke="black" /></g>
<g transform="translate(114.79772227999999,-7.8621428575) rotate(90)"><polygon points="0.0,0.0 -11.44857143,0.0 -10.0,1.69 0.0,1.69" fill="none" stroke="black" /></g>
<g transform="translate(114.79772227999999,-29.3107142875) rotate(90)"><polygon points="0.0,0.0 -11.44857143,0.0 -10.0,1.69 0.0,1.69" fill="none" stroke="black" /></g>
<g transform="translate(114.79772227999999,-50.759285717500006) rotate(90)"><polygon points="0.0,0.0 -11.44857143,0.0 -10.0,1.69 0.0,1.69" fill="none" stroke="black" /></g>
<g transform="translate(114.79772227999999,-72.20785714750001) rotate(90)"><polygon points="0.0,0.0 -11.44857143,0.0 -10.0,1.69 0.0,1.69" fill="none" stroke="black" /></g>
<g transform="translate(114.79772227999999,-93.65642857750001) rotate(90)"><polygon points="0.0,0.0 -11.44857143,0.0 -10.0,1.69 0.0,1.69" fill="none" stroke="black" /></g>
<g transform="translate(123.83999999999999,-115.10500000750001) rotate(90)"><polygon points="0.0,0.0 -11.44857143,0.0 -10.0,1.69 0.0,1.69" fill="none" stroke="black" /></g>
<g transform="translate(125.87285715,-136.5535714375) rotate(90)"><polygon points="0.0,0.0 -11.44857143,0.0 -10.0,1.69 0.0,1.69" fill="none" stroke="black" /></g>
<g transform="translate(126.79500000750001,-157.08000001) rotate(0)"><polygon points="0.0,0.0 -11.44857143,0.0 -10.0,1.69 0.0,1.69" fill="none" stroke="black" /></g>
<g transform="translate(126.48772227999999,-7.8621428575) rotate(90)"><polygon points="0.0,0.0 -11.44857143,0.0 -10.0,1.69 0.0,1.69" fill="none" stroke="black" /></g>
<g transform="translate(126.48772227999999,-29.3107142875) rotate(90)"><polygon points="0.0,0.0 -11.44857143,0.0 -10.0,1.69 0.0,1.69" fill="none" stroke="black" /></g>
<g transform="translate(126.48772227999999,-50.759285717500006) rotate(90)"><polygon points="0.0,0.0 -11.44857143,0.0 -10.0,1.69 0.0,1.69" fill="none" stroke="black" /></g>
<g transform="translate(126.48772227999999,-72.20785714750001) rotate(90)"><polygon points="0.0,0.0 -11.44857143,0.0 -10.0,1.69 0.0,1.69" fill="none" stroke="black" /></g>
<g transform="translate(126.48772227999999,-93.65642857750001) rotate(90)"><polygon points="0.0,0.0 -11.44857143,0.0 -10.0,1.69 0.0,1.69" fill="none" stroke="black" /></g>
<g transform="translate(135.53,-115.10500000750001) rotate(90)"><polygon points="0.0,0.0 -11.44857143,0.0 -10.0,1.69 0.0,1.69" fill="none" stroke="black" /></g>
<g transform="translate(138.48500000750002,-135.63142858) rotate(0)"><polygon points="0.0,0.0 -11.44857143,0.0 -10.0,1.69 0.0,1.69" fill="none" stroke="black" /></g>
<g transform="translate(147.32142858,-148.2435714375) rotate(90)"><polygon points="0.0,0.0 -11.44857143,0.0 -10.0,1.69 0.0,1.69" fill="none" stroke="black" /></g>
<g transform="translate(159.01142858,-148.2435714375) rotate(90)"><polygon points="0.0,0.0 -11.44857143,0.0 -10.0,1.69 0.0,1.69" fill="none" stroke="black" /></g>
<g transform="translate(171.6235714375,-6.9399999999999995) rotate(0)"><polygon points="0.0,0.0 -11.44857143,0.0 -10.0,1.69 0.0,1.69" fill="none" stroke="black" /></g>
<g transform="translate(148.1421428575,-6.9399999999999995) rotate(0)"><polygon points="0.0,0.0 -11.44857143,0.0 -10.0,1.69 0.0,1.69" fill="none" stroke="black" /></g>
<g transform="translate(193.0721428675,-6.9399999999999995) rotate(0)"><polygon points="0.0,0.0 -11.44857143,0.0 -10.0,1.69 0.0,1.69" fill="none" stroke="black" /></g>
<g transform="translate(214.5207142975,-6.9399999999999995) rotate(0)"><polygon points="0.0,0.0 -11.44857143,0.0 -10.0,1.69 0.0,1.69" fill="none" stroke="black" /></g>
<g transform="translate(235.96928572750002,-6.9399999999999995) rotate(0)"><polygon points="0.0,0.0 -11.44857143,0.0 -10.0,1.69 0.0,1.69" fill="none" stroke="black" /></g>
<g transform="translate(256.49571430000003,-7.8621428575) rotate(90)"><polygon points="0.0,0.0 -11.44857143,0.0 -10.0,1.69 0.0,1.69" fill="none" stroke="black" /></g>
<g transform="translate(138.17772227999998,-29.3107142875) rotate(90)"><polygon points="0.0,0.0 -11.44857143,0.0 -10.0,1.69 0.0,1.69" fill="none" stroke="black" /></g>
<g transform="translate(138.17772227999998,-50.759285717500006) rotate(90)"><polygon points="0.0,0.0 -11.44857143,0.0 -10.0,1.69 0.0,1.69" fill="none" stroke="black" /></g>
<g transform="translate(138.17772227999998,-72.20785714750001) rotate(90)"><polygon points="0.0,0.0 -11.44857143,0.0 -10.0,1.69 0.0,1.69" fill="none" stroke="black" /></g>
<g transform="translate(138.17772227999998,-93.65642857750001) rotate(90)"><polygon points="0.0,0.0 -11.44857143,0.0 -10.0,1.69 0.0,1.69" fill="none" stroke="black" /></g>
    </g>
</svg>
