<?xml version="1.0" encoding="UTF-8" standalone="no"?>
<svg
    xmlns:svg="http://www.w3.org/2000/svg"
    xmlns="http://www.w3.org/2000/svg"
    width="269.4mm"
    height="205.9mm"
    viewbox="0 0 269.4 205.9"
>
    <!-- <rect x="1" y="1" width="267.4" height="203.9" fill="transparent" stroke-width="0.02" stroke="#000" /> -->
    <rect x="0" y="0" width="269.4" height="205.9" fill="transparent" stroke-width="0.02" stroke="#000" />
    <g transform="scale(1, -1)" stroke-width="0.4" fill="none">
        <g transform="translate(82.69,-25.62) rotate(0)"><polygon points="79.69,-22.37 79.69,22.37 -79.69,22.37 -79.69,-22.37" fill="none" stroke="black" /></g>
<g transform="translate(82.69,-25.62) rotate(0)"><polygon points="10.0,-14.5 30.0,-14.5 30.0,14.5 10.0,14.5" fill="none" stroke="black" /></g>
<g transform="translate(82.69,-25.62) rotate(0)"><polygon points="-30.0,-14.5 -10.0,-14.5 -10.0,14.5 -30.0,14.5" fill="none" stroke="black" /></g>
<g transform="translate(82.69,-76.36) rotate(0)"><polygon points="79.69,-22.37 79.69,22.37 -79.69,22.37 -79.69,-22.37" fill="none" stroke="black" /></g>
<g transform="translate(82.69,-76.36) rotate(0)"><polygon points="10.0,-14.5 30.0,-14.5 30.0,14.5 10.0,14.5" fill="none" stroke="black" /></g>
<g transform="translate(82.69,-76.36) rotate(0)"><polygon points="-30.0,-14.5 -10.0,-14.5 -10.0,14.5 -30.0,14.5" fill="none" stroke="black" /></g>
    </g>
    <style>
        text {
            font: 1mm sans-serif;
            text-anchor: middle;
            dominant-baseline: middle;
        }
    </style>
    <g transform="scale(1, 1)" stroke-width="0.4" fill="#000">
        <text x="82.69" y="25.62">3</text>
<text x="82.69" y="76.36">10</text>
    </g>
</svg>
