<?xml version="1.0" encoding="UTF-8" standalone="no"?>
<svg
    xmlns:svg="http://www.w3.org/2000/svg"
    xmlns="http://www.w3.org/2000/svg"
    width="269.4mm"
    height="205.9mm"
    viewbox="0 0 269.4 205.9"
>
    <!-- <rect x="1" y="1" width="267.4" height="203.9" fill="transparent" stroke-width="0.02" stroke="#000" /> -->
    <rect x="0" y="0" width="269.4" height="205.9" fill="transparent" stroke-width="0.02" stroke="#000" />
    <g transform="scale(1, -1)" stroke-width="0.4" fill="none">
        <g transform="translate(86.88,-29.25) rotate(0)"><polygon points="83.88,-26.0 83.88,26.0 -83.88,26.0 -83.88,-26.0" fill="none" stroke="black" /></g>
<g transform="translate(86.88,-29.25) rotate(0)"><polygon points="13.0,-11.5 27.0,-11.5 27.0,11.5 13.0,11.5" fill="none" stroke="black" /></g>
<g transform="translate(86.88,-29.25) rotate(0)"><polygon points="-27.0,-11.5 -13.0,-11.5 -13.0,11.5 -27.0,11.5" fill="none" stroke="black" /></g>
<g transform="translate(86.88,-87.25) rotate(0)"><polygon points="83.88,-26.0 83.88,26.0 -83.88,26.0 -83.88,-26.0" fill="none" stroke="black" /></g>
<g transform="translate(86.88,-87.25) rotate(0)"><polygon points="13.0,-11.5 27.0,-11.5 27.0,11.5 13.0,11.5" fill="none" stroke="black" /></g>
<g transform="translate(86.88,-87.25) rotate(0)"><polygon points="-27.0,-11.5 -13.0,-11.5 -13.0,11.5 -27.0,11.5" fill="none" stroke="black" /></g>
    </g>
    <style>
        text {
            font: 1mm sans-serif;
            text-anchor: middle;
            dominant-baseline: middle;
        }
    </style>
    <g transform="scale(1, 1)" stroke-width="0.4" fill="#000">
        <text x="86.88" y="29.25">2</text>
<text x="86.88" y="87.25">8</text>
    </g>
</svg>
