<?xml version="1.0" encoding="UTF-8" standalone="no"?>
<svg
    xmlns:svg="http://www.w3.org/2000/svg"
    xmlns="http://www.w3.org/2000/svg"
    width="269.4mm"
    height="205.9mm"
    viewbox="0 0 269.4 205.9"
>
    <!-- <rect x="1" y="1" width="267.4" height="203.9" fill="transparent" stroke-width="0.02" stroke="#000" /> -->
    <rect x="0" y="0" width="269.4" height="205.9" fill="transparent" stroke-width="0.02" stroke="#000" />
    <g transform="scale(1, -1)" stroke-width="0.4" fill="none">
        <g transform="translate(93.94,-42.69) rotate(90)"><polygon points="39.69,-24.69 39.69,24.69 -39.69,24.69 -39.69,-24.69" fill="none" stroke="black" /></g>
<g transform="translate(93.94,-42.69) rotate(90)"><polygon points="33.88,13.88 33.88,-13.88 28.88,-18.88 -28.88,-18.88 -33.88,-13.88 -33.88,13.88 -28.88,18.88 28.88,18.88" fill="none" stroke="black" /></g>
<g transform="translate(108.69,-110.0) rotate(0)"><polygon points="39.69,-21.37 39.69,21.37 -39.69,21.37 -39.69,-21.37" fill="none" stroke="black" /></g>
<g transform="translate(108.69,-110.0) rotate(0)"><polygon points="10.0,-14.5 30.0,-14.5 30.0,14.5 10.0,14.5" fill="none" stroke="black" /></g>
<g transform="translate(108.69,-110.0) rotate(0)"><polygon points="-30.0,-14.5 -10.0,-14.5 -10.0,14.5 -30.0,14.5" fill="none" stroke="black" /></g>
<g transform="translate(83.75,-147.12) rotate(90)"><polygon points="10.0,-14.5 10.0,14.5 -10.0,14.5 -10.0,-14.5" fill="none" stroke="black" /></g>
<g transform="translate(83.75,-147.12) rotate(90)"><polygon points="-6.0,-10.0 -6.0,-0.375 -0.375,-0.375 -0.375,-10.0" fill="none" stroke="black" /></g>
<g transform="translate(83.75,-147.12) rotate(90)"><polygon points="-6.0,0.375 -6.0,10.0 -0.375,10.0 -0.375,0.375" fill="none" stroke="black" /></g>
<g transform="translate(83.75,-147.12) rotate(90)"><polygon points="0.375,0.375 0.375,10.0 6.0,10.0 6.0,0.375" fill="none" stroke="black" /></g>
<g transform="translate(83.75,-147.12) rotate(90)"><polygon points="6.0,-10.0 6.0,-0.375 0.375,-0.375 0.375,-10.0" fill="none" stroke="black" /></g>
<g transform="translate(140.25,-153.38) rotate(90)"><polygon points="8.5,-1.0 8.5,1.0 -8.5,1.0 -8.5,-1.0" fill="none" stroke="black" /></g>
<g transform="translate(118.75,-147.12) rotate(90)"><polygon points="10.0,-14.5 10.0,14.5 -10.0,14.5 -10.0,-14.5" fill="none" stroke="black" /></g>
<g transform="translate(118.75,-147.12) rotate(90)"><polygon points="-6.0,-10.0 -6.0,-0.375 -0.375,-0.375 -0.375,-10.0" fill="none" stroke="black" /></g>
<g transform="translate(118.75,-147.12) rotate(90)"><polygon points="-6.0,0.375 -6.0,10.0 -0.375,10.0 -0.375,0.375" fill="none" stroke="black" /></g>
<g transform="translate(118.75,-147.12) rotate(90)"><polygon points="0.375,0.375 0.375,10.0 6.0,10.0 6.0,0.375" fill="none" stroke="black" /></g>
<g transform="translate(118.75,-147.12) rotate(90)"><polygon points="6.0,-10.0 6.0,-0.375 0.375,-0.375 0.375,-10.0" fill="none" stroke="black" /></g>
<g transform="translate(148.25,-153.38) rotate(90)"><polygon points="8.5,-1.0 8.5,1.0 -8.5,1.0 -8.5,-1.0" fill="none" stroke="black" /></g>
<g transform="translate(146.0,-42.69) rotate(90)"><polygon points="39.69,-21.37 39.69,21.37 -39.69,21.37 -39.69,-21.37" fill="none" stroke="black" /></g>
<g transform="translate(146.0,-42.69) rotate(90)"><polygon points="10.0,-14.5 30.0,-14.5 30.0,14.5 10.0,14.5" fill="none" stroke="black" /></g>
<g transform="translate(146.0,-42.69) rotate(90)"><polygon points="-30.0,-14.5 -10.0,-14.5 -10.0,14.5 -30.0,14.5" fill="none" stroke="black" /></g>
<g transform="translate(217.87,-13.0) rotate(90)"><polygon points="10.0,-14.5 10.0,14.5 -10.0,14.5 -10.0,-14.5" fill="none" stroke="black" /></g>
<g transform="translate(217.87,-13.0) rotate(90)"><polygon points="-6.0,-10.0 -6.0,-0.375 -0.375,-0.375 -0.375,-10.0" fill="none" stroke="black" /></g>
<g transform="translate(217.87,-13.0) rotate(90)"><polygon points="-6.0,0.375 -6.0,10.0 -0.375,10.0 -0.375,0.375" fill="none" stroke="black" /></g>
<g transform="translate(217.87,-13.0) rotate(90)"><polygon points="0.375,0.375 0.375,10.0 6.0,10.0 6.0,0.375" fill="none" stroke="black" /></g>
<g transform="translate(217.87,-13.0) rotate(90)"><polygon points="6.0,-10.0 6.0,-0.375 0.375,-0.375 0.375,-10.0" fill="none" stroke="black" /></g>
<g transform="translate(156.25,-153.38) rotate(90)"><polygon points="8.5,-1.0 8.5,1.0 -8.5,1.0 -8.5,-1.0" fill="none" stroke="black" /></g>
<g transform="translate(248.12,-17.75) rotate(0)"><polygon points="10.0,-14.5 10.0,14.5 -10.0,14.5 -10.0,-14.5" fill="none" stroke="black" /></g>
<g transform="translate(248.12,-17.75) rotate(0)"><polygon points="-6.0,-10.0 -6.0,-0.375 -0.375,-0.375 -0.375,-10.0" fill="none" stroke="black" /></g>
<g transform="translate(248.12,-17.75) rotate(0)"><polygon points="-6.0,0.375 -6.0,10.0 -0.375,10.0 -0.375,0.375" fill="none" stroke="black" /></g>
<g transform="translate(248.12,-17.75) rotate(0)"><polygon points="0.375,0.375 0.375,10.0 6.0,10.0 6.0,0.375" fill="none" stroke="black" /></g>
<g transform="translate(248.12,-17.75) rotate(0)"><polygon points="6.0,-10.0 6.0,-0.375 0.375,-0.375 0.375,-10.0" fill="none" stroke="black" /></g>
<g transform="translate(164.25,-153.38) rotate(90)"><polygon points="8.5,-1.0 8.5,1.0 -8.5,1.0 -8.5,-1.0" fill="none" stroke="black" /></g>
<g transform="translate(217.87,-39.0) rotate(90)"><polygon points="10.0,-14.5 10.0,14.5 -10.0,14.5 -10.0,-14.5" fill="none" stroke="black" /></g>
<g transform="translate(217.87,-39.0) rotate(90)"><polygon points="-6.0,-10.0 -6.0,-0.375 -0.375,-0.375 -0.375,-10.0" fill="none" stroke="black" /></g>
<g transform="translate(217.87,-39.0) rotate(90)"><polygon points="-6.0,0.375 -6.0,10.0 -0.375,10.0 -0.375,0.375" fill="none" stroke="black" /></g>
<g transform="translate(217.87,-39.0) rotate(90)"><polygon points="0.375,0.375 0.375,10.0 6.0,10.0 6.0,0.375" fill="none" stroke="black" /></g>
<g transform="translate(217.87,-39.0) rotate(90)"><polygon points="6.0,-10.0 6.0,-0.375 0.375,-0.375 0.375,-10.0" fill="none" stroke="black" /></g>
<g transform="translate(172.25,-153.38) rotate(90)"><polygon points="8.5,-1.0 8.5,1.0 -8.5,1.0 -8.5,-1.0" fill="none" stroke="black" /></g>
<g transform="translate(33.0,-51.25) rotate(0)"><polygon points="30.0,25.0 30.0,-25.0 -30.0,-25.0 -30.0,25.0 0.0,48.0" fill="none" stroke="black" /></g>
<g transform="translate(33.0,-130.25) rotate(0)"><polygon points="30.0,25.0 30.0,-25.0 -30.0,-25.0 -30.0,25.0 0.0,48.0" fill="none" stroke="black" /></g>
<g transform="translate(176.0,-113.63) rotate(90)"><polygon points="25.25,-21.37 25.25,21.37 -25.25,21.37 -25.25,-21.37" fill="none" stroke="black" /></g>
    </g>
    <style>
        text {
            font: 1mm sans-serif;
            text-anchor: middle;
            dominant-baseline: middle;
        }
    </style>
    <g transform="scale(1, 1)" stroke-width="0.4" fill="#000">
        <text x="93.94" y="42.69">0</text>
<text x="108.69" y="110.0">3</text>
<text x="83.75" y="147.12">4</text>
<text x="140.25" y="153.38">5</text>
<text x="118.75" y="147.12">6</text>
<text x="148.25" y="153.38">7</text>
<text x="146.0" y="42.69">10</text>
<text x="217.87" y="13.0">11</text>
<text x="156.25" y="153.38">12</text>
<text x="248.12" y="17.75">13</text>
<text x="164.25" y="153.38">14</text>
<text x="217.87" y="39.0">18</text>
<text x="172.25" y="153.38">19</text>
<text x="33.0" y="51.25">20</text>
<text x="33.0" y="130.25">21</text>
<text x="176.0" y="113.63">22</text>
    </g>
</svg>
