<?xml version="1.0" encoding="UTF-8" standalone="no"?>
<svg
    xmlns:svg="http://www.w3.org/2000/svg"
    xmlns="http://www.w3.org/2000/svg"
    width="269.4mm"
    height="205.9mm"
    viewbox="0 0 269.4 205.9"
>
    <!-- <rect x="1" y="1" width="267.4" height="203.9" fill="transparent" stroke-width="0.02" stroke="#000" /> -->
    <rect x="0" y="0" width="269.4" height="205.9" fill="transparent" stroke-width="0.02" stroke="#000" />
    <g transform="scale(1, -1)" stroke-width="0.4" fill="none">
        <g transform="translate(139.94,-42.69) rotate(90)"><polygon points="39.69,-24.69 39.69,24.69 -39.69,24.69 -39.69,-24.69" fill="none" stroke="black" /></g>
<g transform="translate(139.94,-42.69) rotate(90)"><polygon points="33.88,-13.88 28.88,-18.88 -28.88,-18.88 -33.88,-13.88 -33.88,13.88 -28.88,18.88 28.88,18.88 33.88,13.88" fill="none" stroke="black" /></g>
<g transform="translate(28.25,-46.88) rotate(90)"><polygon points="43.88,-25.0 43.88,25.0 -43.88,25.0 -43.88,-25.0" fill="none" stroke="black" /></g>
<g transform="translate(28.25,-46.88) rotate(90)"><polygon points="13.0,-11.5 27.0,-11.5 27.0,11.5 13.0,11.5" fill="none" stroke="black" /></g>
<g transform="translate(28.25,-46.88) rotate(90)"><polygon points="-27.0,-11.5 -13.0,-11.5 -13.0,11.5 -27.0,11.5" fill="none" stroke="black" /></g>
<g transform="translate(46.88,-122.01) rotate(0)"><polygon points="43.88,-25.0 43.88,25.0 -43.88,25.0 -43.88,-25.0" fill="none" stroke="black" /></g>
<g transform="translate(46.88,-122.01) rotate(0)"><polygon points="13.0,-11.5 27.0,-11.5 27.0,11.5 13.0,11.5" fill="none" stroke="black" /></g>
<g transform="translate(46.88,-122.01) rotate(0)"><polygon points="-27.0,-11.5 -13.0,-11.5 -13.0,11.5 -27.0,11.5" fill="none" stroke="black" /></g>
<g transform="translate(192.0,-42.69) rotate(90)"><polygon points="39.69,-21.37 39.69,21.37 -39.69,21.37 -39.69,-21.37" fill="none" stroke="black" /></g>
<g transform="translate(192.0,-42.69) rotate(90)"><polygon points="10.0,-14.5 30.0,-14.5 30.0,14.5 10.0,14.5" fill="none" stroke="black" /></g>
<g transform="translate(192.0,-42.69) rotate(90)"><polygon points="-30.0,-14.5 -10.0,-14.5 -10.0,14.5 -30.0,14.5" fill="none" stroke="black" /></g>
<g transform="translate(123.5,-89.63) rotate(0)"><polygon points="8.5,-1.0 8.5,1.0 -8.5,1.0 -8.5,-1.0" fill="none" stroke="black" /></g>
<g transform="translate(146.5,-89.63) rotate(0)"><polygon points="8.5,-1.0 8.5,1.0 -8.5,1.0 -8.5,-1.0" fill="none" stroke="black" /></g>
<g transform="translate(84.25,-46.88) rotate(90)"><polygon points="43.88,-25.0 43.88,25.0 -43.88,25.0 -43.88,-25.0" fill="none" stroke="black" /></g>
<g transform="translate(84.25,-46.88) rotate(90)"><polygon points="13.0,-11.5 27.0,-11.5 27.0,11.5 13.0,11.5" fill="none" stroke="black" /></g>
<g transform="translate(84.25,-46.88) rotate(90)"><polygon points="-27.0,-11.5 -13.0,-11.5 -13.0,11.5 -27.0,11.5" fill="none" stroke="black" /></g>
<g transform="translate(140.64000000000001,-122.01) rotate(0)"><polygon points="43.88,-25.0 43.88,25.0 -43.88,25.0 -43.88,-25.0" fill="none" stroke="black" /></g>
<g transform="translate(140.64000000000001,-122.01) rotate(0)"><polygon points="13.0,-11.5 27.0,-11.5 27.0,11.5 13.0,11.5" fill="none" stroke="black" /></g>
<g transform="translate(140.64000000000001,-122.01) rotate(0)"><polygon points="-27.0,-11.5 -13.0,-11.5 -13.0,11.5 -27.0,11.5" fill="none" stroke="black" /></g>
<g transform="translate(240.74,-42.69) rotate(90)"><polygon points="39.69,-21.37 39.69,21.37 -39.69,21.37 -39.69,-21.37" fill="none" stroke="black" /></g>
<g transform="translate(240.74,-42.69) rotate(90)"><polygon points="10.0,-14.5 30.0,-14.5 30.0,14.5 10.0,14.5" fill="none" stroke="black" /></g>
<g transform="translate(240.74,-42.69) rotate(90)"><polygon points="-30.0,-14.5 -10.0,-14.5 -10.0,14.5 -30.0,14.5" fill="none" stroke="black" /></g>
<g transform="translate(169.5,-89.63) rotate(0)"><polygon points="8.5,-1.0 8.5,1.0 -8.5,1.0 -8.5,-1.0" fill="none" stroke="black" /></g>
<g transform="translate(191.77,-152.88) rotate(90)"><polygon points="8.5,-1.0 8.5,1.0 -8.5,1.0 -8.5,-1.0" fill="none" stroke="black" /></g>
<g transform="translate(220.52,-113.63) rotate(0)"><polygon points="30.0,-25.0 30.0,25.0 -30.0,25.0 -30.0,-25.0" fill="none" stroke="black" /></g>
<g transform="translate(220.52,-113.63) rotate(0)"><polygon points="-7.0,-11.5 7.0,-11.5 7.0,11.5 -7.0,11.5" fill="none" stroke="black" /></g>
<g transform="translate(199.77,-152.88) rotate(90)"><polygon points="8.5,-1.0 8.5,1.0 -8.5,1.0 -8.5,-1.0" fill="none" stroke="black" /></g>
    </g>
</svg>
