<?xml version="1.0" encoding="UTF-8" standalone="no"?>
<svg
    xmlns:svg="http://www.w3.org/2000/svg"
    xmlns="http://www.w3.org/2000/svg"
    width="269.4mm"
    height="205.9mm"
    viewbox="0 0 269.4 205.9"
>
    <!-- <rect x="1" y="1" width="267.4" height="203.9" fill="transparent" stroke-width="0.02" stroke="#000" /> -->
    <rect x="0" y="0" width="269.4" height="205.9" fill="transparent" stroke-width="0.02" stroke="#000" />
    <g transform="scale(1, -1)" stroke-width="0.4" fill="none">
        <g transform="translate(257.75,-11.5) rotate(90)"><polygon points="8.5,-1.0 8.5,1.0 -8.5,1.0 -8.5,-1.0" fill="none" stroke="black" /></g>
<g transform="translate(257.75,-34.5) rotate(90)"><polygon points="8.5,-1.0 8.5,1.0 -8.5,1.0 -8.5,-1.0" fill="none" stroke="black" /></g>
<g transform="translate(257.75,-57.5) rotate(90)"><polygon points="8.5,-1.0 8.5,1.0 -8.5,1.0 -8.5,-1.0" fill="none" stroke="black" /></g>
<g transform="translate(257.75,-80.5) rotate(90)"><polygon points="8.5,-1.0 8.5,1.0 -8.5,1.0 -8.5,-1.0" fill="none" stroke="black" /></g>
<g transform="translate(220.75,-25.62) rotate(0)"><polygon points="29.75,-22.37 29.75,22.37 -29.75,22.37 -29.75,-22.37" fill="none" stroke="black" /></g>
<g transform="translate(220.75,-25.62) rotate(0)"><polygon points="-10.0,-14.5 10.0,-14.5 10.0,14.5 -10.0,14.5" fill="none" stroke="black" /></g>
<g transform="translate(257.75,-103.5) rotate(90)"><polygon points="8.5,-1.0 8.5,1.0 -8.5,1.0 -8.5,-1.0" fill="none" stroke="black" /></g>
<g transform="translate(220.75,-76.36) rotate(0)"><polygon points="29.75,-22.37 29.75,22.37 -29.75,22.37 -29.75,-22.37" fill="none" stroke="black" /></g>
<g transform="translate(94.0,-26.70880006) rotate(0)"><polygon points="91.0,-23.45880006 91.0,23.45880006 -91.0,23.45880006 -91.0,-23.45880006" fill="none" stroke="black" /></g>
<g transform="translate(94.0,-26.70880006) rotate(0)"><polygon points="80.5,-11.69293171 83.88,-11.69293171 83.88,8.30706829 80.5,8.30706829" fill="none" stroke="black" /></g>
<g transform="translate(94.0,-26.70880006) rotate(0)"><polygon points="-83.88,-11.69293171 -80.5,-11.69293171 -80.5,8.30706829 -83.88,8.30706829" fill="none" stroke="black" /></g>
<g transform="translate(94.0,-79.62640018) rotate(0)"><polygon points="91.0,-23.45880006 91.0,23.45880006 -91.0,23.45880006 -91.0,-23.45880006" fill="none" stroke="black" /></g>
<g transform="translate(94.0,-79.62640018) rotate(0)"><polygon points="80.5,-12.05003316 83.88,-12.05003316 83.88,7.94996684 80.5,7.94996684" fill="none" stroke="black" /></g>
<g transform="translate(94.0,-79.62640018) rotate(0)"><polygon points="-83.88,-12.05003316 -80.5,-12.05003316 -80.5,7.94996684 -83.88,7.94996684" fill="none" stroke="black" /></g>
<g transform="translate(94.0,-132.5440003) rotate(0)"><polygon points="91.0,-23.45880006 91.0,23.45880006 -91.0,23.45880006 -91.0,-23.45880006" fill="none" stroke="black" /></g>
<g transform="translate(94.0,-132.5440003) rotate(0)"><polygon points="80.5,-12.40713461 83.88,-12.40713461 83.88,7.59286539 80.5,7.59286539" fill="none" stroke="black" /></g>
<g transform="translate(94.0,-132.5440003) rotate(0)"><polygon points="-83.88,-12.40713461 -80.5,-12.40713461 -80.5,7.59286539 -83.88,7.59286539" fill="none" stroke="black" /></g>
    </g>
    <style>
        text {
            font: 1mm sans-serif;
            text-anchor: middle;
            dominant-baseline: middle;
        }
    </style>
    <g transform="scale(1, 1)" stroke-width="0.4" fill="#000">
        <text x="257.75" y="11.5">5</text>
<text x="257.75" y="34.5">7</text>
<text x="257.75" y="57.5">12</text>
<text x="257.75" y="80.5">14</text>
<text x="220.75" y="25.62">17</text>
<text x="257.75" y="103.5">19</text>
<text x="220.75" y="76.36">22</text>
<text x="94.0" y="26.70880006">28</text>
<text x="94.0" y="79.62640018">29</text>
<text x="94.0" y="132.5440003">30</text>
    </g>
</svg>
