<?xml version="1.0" encoding="UTF-8" standalone="no"?>
<svg
    xmlns:svg="http://www.w3.org/2000/svg"
    xmlns="http://www.w3.org/2000/svg"
    width="269.4mm"
    height="205.9mm"
    viewbox="0 0 269.4 205.9"
>
    <!-- <rect x="1" y="1" width="267.4" height="203.9" fill="transparent" stroke-width="0.02" stroke="#000" /> -->
    <rect x="0" y="0" width="269.4" height="205.9" fill="transparent" stroke-width="0.02" stroke="#000" />
    <g transform="scale(1, -1)" stroke-width="0.4" fill="none">
        <g transform="translate(17.75,-145.0) rotate(90)"><polygon points="10.0,-14.5 10.0,14.5 -10.0,14.5 -10.0,-14.5" fill="none" stroke="black" /></g>
<g transform="translate(17.75,-145.0) rotate(90)"><polygon points="-6.0,-10.0 -6.0,-0.375 -0.375,-0.375 -0.375,-10.0" fill="none" stroke="black" /></g>
<g transform="translate(17.75,-145.0) rotate(90)"><polygon points="-6.0,0.375 -6.0,10.0 -0.375,10.0 -0.375,0.375" fill="none" stroke="black" /></g>
<g transform="translate(17.75,-145.0) rotate(90)"><polygon points="0.375,0.375 0.375,10.0 6.0,10.0 6.0,0.375" fill="none" stroke="black" /></g>
<g transform="translate(17.75,-145.0) rotate(90)"><polygon points="6.0,-10.0 6.0,-0.375 0.375,-0.375 0.375,-10.0" fill="none" stroke="black" /></g>
<g transform="translate(52.75,-145.0) rotate(90)"><polygon points="10.0,-14.5 10.0,14.5 -10.0,14.5 -10.0,-14.5" fill="none" stroke="black" /></g>
<g transform="translate(52.75,-145.0) rotate(90)"><polygon points="-6.0,-10.0 -6.0,-0.375 -0.375,-0.375 -0.375,-10.0" fill="none" stroke="black" /></g>
<g transform="translate(52.75,-145.0) rotate(90)"><polygon points="-6.0,0.375 -6.0,10.0 -0.375,10.0 -0.375,0.375" fill="none" stroke="black" /></g>
<g transform="translate(52.75,-145.0) rotate(90)"><polygon points="0.375,0.375 0.375,10.0 6.0,10.0 6.0,0.375" fill="none" stroke="black" /></g>
<g transform="translate(52.75,-145.0) rotate(90)"><polygon points="6.0,-10.0 6.0,-0.375 0.375,-0.375 0.375,-10.0" fill="none" stroke="black" /></g>
<g transform="translate(83.0,-140.25) rotate(0)"><polygon points="10.0,-14.5 10.0,14.5 -10.0,14.5 -10.0,-14.5" fill="none" stroke="black" /></g>
<g transform="translate(83.0,-140.25) rotate(0)"><polygon points="-6.0,-10.0 -6.0,-0.375 -0.375,-0.375 -0.375,-10.0" fill="none" stroke="black" /></g>
<g transform="translate(83.0,-140.25) rotate(0)"><polygon points="-6.0,0.375 -6.0,10.0 -0.375,10.0 -0.375,0.375" fill="none" stroke="black" /></g>
<g transform="translate(83.0,-140.25) rotate(0)"><polygon points="0.375,0.375 0.375,10.0 6.0,10.0 6.0,0.375" fill="none" stroke="black" /></g>
<g transform="translate(83.0,-140.25) rotate(0)"><polygon points="6.0,-10.0 6.0,-0.375 0.375,-0.375 0.375,-10.0" fill="none" stroke="black" /></g>
<g transform="translate(109.0,-140.25) rotate(0)"><polygon points="10.0,-14.5 10.0,14.5 -10.0,14.5 -10.0,-14.5" fill="none" stroke="black" /></g>
<g transform="translate(109.0,-140.25) rotate(0)"><polygon points="-6.0,-10.0 -6.0,-0.375 -0.375,-0.375 -0.375,-10.0" fill="none" stroke="black" /></g>
<g transform="translate(109.0,-140.25) rotate(0)"><polygon points="-6.0,0.375 -6.0,10.0 -0.375,10.0 -0.375,0.375" fill="none" stroke="black" /></g>
<g transform="translate(109.0,-140.25) rotate(0)"><polygon points="0.375,0.375 0.375,10.0 6.0,10.0 6.0,0.375" fill="none" stroke="black" /></g>
<g transform="translate(109.0,-140.25) rotate(0)"><polygon points="6.0,-10.0 6.0,-0.375 0.375,-0.375 0.375,-10.0" fill="none" stroke="black" /></g>
<g transform="translate(28.25,-33.0) rotate(90)"><polygon points="30.0,-25.0 30.0,25.0 -30.0,25.0 -30.0,-25.0" fill="none" stroke="black" /></g>
<g transform="translate(28.25,-33.0) rotate(90)"><polygon points="-7.0,-11.5 7.0,-11.5 7.0,11.5 -7.0,11.5" fill="none" stroke="black" /></g>
<g transform="translate(80.62,-94.25) rotate(90)"><polygon points="25.25,-21.37 25.25,21.37 -25.25,21.37 -25.25,-21.37" fill="none" stroke="black" /></g>
<g transform="translate(80.62,-94.25) rotate(90)"><polygon points="-10.0,-14.5 10.0,-14.5 10.0,14.5 -10.0,14.5" fill="none" stroke="black" /></g>
<g transform="translate(135.0,-140.25) rotate(0)"><polygon points="10.0,-14.5 10.0,14.5 -10.0,14.5 -10.0,-14.5" fill="none" stroke="black" /></g>
<g transform="translate(135.0,-140.25) rotate(0)"><polygon points="-6.0,-10.0 -6.0,-0.375 -0.375,-0.375 -0.375,-10.0" fill="none" stroke="black" /></g>
<g transform="translate(135.0,-140.25) rotate(0)"><polygon points="-6.0,0.375 -6.0,10.0 -0.375,10.0 -0.375,0.375" fill="none" stroke="black" /></g>
<g transform="translate(135.0,-140.25) rotate(0)"><polygon points="0.375,0.375 0.375,10.0 6.0,10.0 6.0,0.375" fill="none" stroke="black" /></g>
<g transform="translate(135.0,-140.25) rotate(0)"><polygon points="6.0,-10.0 6.0,-0.375 0.375,-0.375 0.375,-10.0" fill="none" stroke="black" /></g>
<g transform="translate(28.25,-99.0) rotate(90)"><polygon points="30.0,-25.0 30.0,25.0 -30.0,25.0 -30.0,-25.0" fill="none" stroke="black" /></g>
<g transform="translate(84.25,-33.0) rotate(90)"><polygon points="30.0,-25.0 30.0,25.0 -30.0,25.0 -30.0,-25.0" fill="none" stroke="black" /></g>
<g transform="translate(129.36,-94.25) rotate(90)"><polygon points="25.25,-21.37 25.25,21.37 -25.25,21.37 -25.25,-21.37" fill="none" stroke="black" /></g>
    </g>
</svg>
