<?xml version="1.0" encoding="UTF-8" standalone="no"?>
<svg
    xmlns:svg="http://www.w3.org/2000/svg"
    xmlns="http://www.w3.org/2000/svg"
    width="269.4mm"
    height="205.9mm"
    viewbox="0 0 269.4 205.9"
>
    <!-- <rect x="1" y="1" width="267.4" height="203.9" fill="transparent" stroke-width="0.02" stroke="#000" /> -->
    <rect x="0" y="0" width="269.4" height="205.9" fill="transparent" stroke-width="0.02" stroke="#000" />
    <g transform="scale(1, -1)" stroke-width="0.4" fill="none">
        <g transform="translate(82.69,-32.44) rotate(0)"><polygon points="79.69,-29.19 79.69,29.19 -79.69,29.19 -79.69,-29.19" fill="none" stroke="black" /></g>
<g transform="translate(82.69,-32.44) rotate(0)"><polygon points="73.88,18.38 73.88,-18.38 68.88,-23.38 -68.88,-23.38 -73.88,-18.38 -73.88,18.38 -68.88,23.38 68.88,23.38" fill="none" stroke="black" /></g>
<g transform="translate(86.88,-93.63) rotate(0)"><polygon points="83.88,-26.0 83.88,26.0 -83.88,26.0 -83.88,-26.0" fill="none" stroke="black" /></g>
<g transform="translate(86.88,-93.63) rotate(0)"><polygon points="13.0,-11.5 27.0,-11.5 27.0,11.5 13.0,11.5" fill="none" stroke="black" /></g>
<g transform="translate(86.88,-93.63) rotate(0)"><polygon points="-27.0,-11.5 -13.0,-11.5 -13.0,11.5 -27.0,11.5" fill="none" stroke="black" /></g>
<g transform="translate(13.0,-140.13) rotate(0)"><polygon points="10.0,-14.5 10.0,14.5 -10.0,14.5 -10.0,-14.5" fill="none" stroke="black" /></g>
<g transform="translate(13.0,-140.13) rotate(0)"><polygon points="-6.0,-10.0 -6.0,-0.375 -0.375,-0.375 -0.375,-10.0" fill="none" stroke="black" /></g>
<g transform="translate(13.0,-140.13) rotate(0)"><polygon points="-6.0,0.375 -6.0,10.0 -0.375,10.0 -0.375,0.375" fill="none" stroke="black" /></g>
<g transform="translate(13.0,-140.13) rotate(0)"><polygon points="0.375,0.375 0.375,10.0 6.0,10.0 6.0,0.375" fill="none" stroke="black" /></g>
<g transform="translate(13.0,-140.13) rotate(0)"><polygon points="6.0,-10.0 6.0,-0.375 0.375,-0.375 0.375,-10.0" fill="none" stroke="black" /></g>
<g transform="translate(39.0,-140.13) rotate(0)"><polygon points="10.0,-14.5 10.0,14.5 -10.0,14.5 -10.0,-14.5" fill="none" stroke="black" /></g>
<g transform="translate(39.0,-140.13) rotate(0)"><polygon points="-6.0,-10.0 -6.0,-0.375 -0.375,-0.375 -0.375,-10.0" fill="none" stroke="black" /></g>
<g transform="translate(39.0,-140.13) rotate(0)"><polygon points="-6.0,0.375 -6.0,10.0 -0.375,10.0 -0.375,0.375" fill="none" stroke="black" /></g>
<g transform="translate(39.0,-140.13) rotate(0)"><polygon points="0.375,0.375 0.375,10.0 6.0,10.0 6.0,0.375" fill="none" stroke="black" /></g>
<g transform="translate(39.0,-140.13) rotate(0)"><polygon points="6.0,-10.0 6.0,-0.375 0.375,-0.375 0.375,-10.0" fill="none" stroke="black" /></g>
<g transform="translate(65.0,-140.13) rotate(0)"><polygon points="10.0,-14.5 10.0,14.5 -10.0,14.5 -10.0,-14.5" fill="none" stroke="black" /></g>
<g transform="translate(65.0,-140.13) rotate(0)"><polygon points="-6.0,-10.0 -6.0,-0.375 -0.375,-0.375 -0.375,-10.0" fill="none" stroke="black" /></g>
<g transform="translate(65.0,-140.13) rotate(0)"><polygon points="-6.0,0.375 -6.0,10.0 -0.375,10.0 -0.375,0.375" fill="none" stroke="black" /></g>
<g transform="translate(65.0,-140.13) rotate(0)"><polygon points="0.375,0.375 0.375,10.0 6.0,10.0 6.0,0.375" fill="none" stroke="black" /></g>
<g transform="translate(65.0,-140.13) rotate(0)"><polygon points="6.0,-10.0 6.0,-0.375 0.375,-0.375 0.375,-10.0" fill="none" stroke="black" /></g>
<g transform="translate(91.0,-140.13) rotate(0)"><polygon points="10.0,-14.5 10.0,14.5 -10.0,14.5 -10.0,-14.5" fill="none" stroke="black" /></g>
<g transform="translate(91.0,-140.13) rotate(0)"><polygon points="-6.0,-10.0 -6.0,-0.375 -0.375,-0.375 -0.375,-10.0" fill="none" stroke="black" /></g>
<g transform="translate(91.0,-140.13) rotate(0)"><polygon points="-6.0,0.375 -6.0,10.0 -0.375,10.0 -0.375,0.375" fill="none" stroke="black" /></g>
<g transform="translate(91.0,-140.13) rotate(0)"><polygon points="0.375,0.375 0.375,10.0 6.0,10.0 6.0,0.375" fill="none" stroke="black" /></g>
<g transform="translate(91.0,-140.13) rotate(0)"><polygon points="6.0,-10.0 6.0,-0.375 0.375,-0.375 0.375,-10.0" fill="none" stroke="black" /></g>
<g transform="translate(117.0,-140.13) rotate(0)"><polygon points="10.0,-14.5 10.0,14.5 -10.0,14.5 -10.0,-14.5" fill="none" stroke="black" /></g>
<g transform="translate(117.0,-140.13) rotate(0)"><polygon points="-6.0,-10.0 -6.0,-0.375 -0.375,-0.375 -0.375,-10.0" fill="none" stroke="black" /></g>
<g transform="translate(117.0,-140.13) rotate(0)"><polygon points="-6.0,0.375 -6.0,10.0 -0.375,10.0 -0.375,0.375" fill="none" stroke="black" /></g>
<g transform="translate(117.0,-140.13) rotate(0)"><polygon points="0.375,0.375 0.375,10.0 6.0,10.0 6.0,0.375" fill="none" stroke="black" /></g>
<g transform="translate(117.0,-140.13) rotate(0)"><polygon points="6.0,-10.0 6.0,-0.375 0.375,-0.375 0.375,-10.0" fill="none" stroke="black" /></g>
    </g>
    <style>
        text {
            font: 1mm sans-serif;
            text-anchor: middle;
            dominant-baseline: middle;
        }
    </style>
    <g transform="scale(1, 1)" stroke-width="0.4" fill="#000">
        <text x="82.69" y="32.44">0</text>
<text x="86.88" y="93.63">1</text>
<text x="13.0" y="140.13">4</text>
<text x="39.0" y="140.13">6</text>
<text x="65.0" y="140.13">11</text>
<text x="91.0" y="140.13">13</text>
<text x="117.0" y="140.13">18</text>
    </g>
</svg>
