<?xml version="1.0" encoding="UTF-8" standalone="no"?>
<svg
    xmlns:svg="http://www.w3.org/2000/svg"
    xmlns="http://www.w3.org/2000/svg"
    width="269.4mm"
    height="205.9mm"
    viewbox="0 0 269.4 205.9"
>
    <!-- <rect x="1" y="1" width="267.4" height="203.9" fill="transparent" stroke-width="0.02" stroke="#000" /> -->
    <rect x="0" y="0" width="269.4" height="205.9" fill="transparent" stroke-width="0.02" stroke="#000" />
    <g transform="scale(1, -1)" stroke-width="0.4" fill="none">
        <g transform="translate(86.88,-29.25) rotate(0)"><polygon points="83.88,-26.0 83.88,26.0 -83.88,26.0 -83.88,-26.0" fill="none" stroke="black" /></g>
<g transform="translate(86.88,-29.25) rotate(0)"><polygon points="13.0,-11.5 27.0,-11.5 27.0,11.5 13.0,11.5" fill="none" stroke="black" /></g>
<g transform="translate(86.88,-29.25) rotate(0)"><polygon points="-27.0,-11.5 -13.0,-11.5 -13.0,11.5 -27.0,11.5" fill="none" stroke="black" /></g>
<g transform="translate(225.5,-51.25) rotate(0)"><polygon points="34.5,26.0 34.5,-26.0 -34.5,-26.0 -34.5,26.0 0.0,48.0" fill="none" stroke="black" /></g>
<g transform="translate(225.5,-51.25) rotate(0)"><polygon points="-7.0,-11.5 7.0,-11.5 7.0,11.5 -7.0,11.5" fill="none" stroke="black" /></g>
<g transform="translate(225.5,-131.25) rotate(0)"><polygon points="34.5,26.0 34.5,-26.0 -34.5,-26.0 -34.5,26.0 0.0,48.0" fill="none" stroke="black" /></g>
<g transform="translate(225.5,-131.25) rotate(0)"><polygon points="-7.0,-11.5 7.0,-11.5 7.0,11.5 -7.0,11.5" fill="none" stroke="black" /></g>
<g transform="translate(94.0,-84.70880006) rotate(0)"><polygon points="91.0,-23.45880006 91.0,23.45880006 -91.0,23.45880006 -91.0,-23.45880006" fill="none" stroke="black" /></g>
<g transform="translate(94.0,-84.70880006) rotate(0)"><polygon points="80.5,-11.33583026 83.88,-11.33583026 83.88,8.66416974 80.5,8.66416974" fill="none" stroke="black" /></g>
<g transform="translate(94.0,-84.70880006) rotate(0)"><polygon points="-83.88,-11.33583026 -80.5,-11.33583026 -80.5,8.66416974 -83.88,8.66416974" fill="none" stroke="black" /></g>
<g transform="translate(94.0,-137.62640018000002) rotate(0)"><polygon points="91.0,-23.45880006 91.0,23.45880006 -91.0,23.45880006 -91.0,-23.45880006" fill="none" stroke="black" /></g>
<g transform="translate(94.0,-137.62640018000002) rotate(0)"><polygon points="80.5,-11.69293171 83.88,-11.69293171 83.88,8.30706829 80.5,8.30706829" fill="none" stroke="black" /></g>
<g transform="translate(94.0,-137.62640018000002) rotate(0)"><polygon points="-83.88,-11.69293171 -80.5,-11.69293171 -80.5,8.30706829 -83.88,8.30706829" fill="none" stroke="black" /></g>
    </g>
    <style>
        text {
            font: 1mm sans-serif;
            text-anchor: middle;
            dominant-baseline: middle;
        }
    </style>
    <g transform="scale(1, 1)" stroke-width="0.4" fill="#000">
        <text x="86.88" y="29.25">9</text>
<text x="225.5" y="51.25">15</text>
<text x="225.5" y="131.25">16</text>
<text x="94.0" y="84.70880006">23</text>
<text x="94.0" y="137.62640018000002">24</text>
    </g>
</svg>
