<?xml version="1.0" encoding="UTF-8" standalone="no"?>
<svg
    xmlns:svg="http://www.w3.org/2000/svg"
    xmlns="http://www.w3.org/2000/svg"
    width="269.4mm"
    height="205.9mm"
    viewbox="0 0 269.4 205.9"
>
    <!-- <rect x="1" y="1" width="267.4" height="203.9" fill="transparent" stroke-width="0.02" stroke="#000" /> -->
    <rect x="0" y="0" width="269.4" height="205.9" fill="transparent" stroke-width="0.02" stroke="#000" />
    <g transform="scale(1, -1)" stroke-width="0.4" fill="none">
        <g transform="translate(86.4575,-36.2075) rotate(0)"><polygon points="-83.4575,-15.0 -80.5,-15.0 -80.5,-30.0 -55.25,-30.0 -55.25,-32.9575 -25.25,-32.9575 -25.25,-30.0 25.25,-30.0 25.25,-32.9575 55.25,-32.9575 55.25,-30.0 80.5,-30.0 80.5,-15.0 83.4575,-15.0 83.4575,15.0 80.5,15.0 80.5,30.0 55.25,30.0 55.25,32.9575 25.25,32.9575 25.25,30.0 -25.25,30.0 -25.25,32.9575 -55.25,32.9575 -55.25,30.0 -80.5,30.0 -80.5,15.0 -83.4575,15.0" fill="none" stroke="black" /></g>
<g transform="translate(86.4575,-108.1225) rotate(0)"><polygon points="-83.4575,-15.0 -80.5,-15.0 -80.5,-30.0 -55.25,-30.0 -55.25,-32.9575 -25.25,-32.9575 -25.25,-30.0 25.25,-30.0 25.25,-32.9575 55.25,-32.9575 55.25,-30.0 80.5,-30.0 80.5,-15.0 83.4575,-15.0 83.4575,15.0 80.5,15.0 80.5,30.0 55.25,30.0 55.25,32.9575 25.25,32.9575 25.25,30.0 -25.25,30.0 -25.25,32.9575 -55.25,32.9575 -55.25,30.0 -80.5,30.0 -80.5,15.0 -83.4575,15.0" fill="none" stroke="black" /></g>
<g transform="translate(223.80789855,-36.38) rotate(90)"><polygon points="-30.73530076,31.12722156 -29.33736931,28.93501088 -33.38,26.35710145 -33.38,14.64289855 -30.0,14.64289855 -30.0,-15.35710145 -33.38,-15.35710145 -33.38,-26.35710145 33.38,-26.35710145 33.38,-15.35710145 30.0,-15.35710145 30.0,14.64289855 33.38,14.64289855 33.38,26.35710145 29.33736931,28.93501088 30.73530076,31.12722156 13.87214168,41.88054039 12.47421023,39.68832971 0.0,47.64289855 -12.47421023,39.68832971 -13.87214168,41.88054039" fill="none" stroke="black" /></g>
<g transform="translate(223.80789855,-36.38) rotate(90)"><polygon points="15.0,-15.29710145 15.0,-11.91710145 -15.0,-11.91710145 -15.0,-15.29710145" fill="none" stroke="black" /></g>
<g transform="translate(223.80789855,-109.14000000000001) rotate(90)"><polygon points="-30.73530076,31.12722156 -29.33736931,28.93501088 -33.38,26.35710145 -33.38,14.64289855 -30.0,14.64289855 -30.0,-15.35710145 -33.38,-15.35710145 -33.38,-26.35710145 33.38,-26.35710145 33.38,-15.35710145 30.0,-15.35710145 30.0,14.64289855 33.38,14.64289855 33.38,26.35710145 29.33736931,28.93501088 30.73530076,31.12722156 13.87214168,41.88054039 12.47421023,39.68832971 0.0,47.64289855 -12.47421023,39.68832971 -13.87214168,41.88054039" fill="none" stroke="black" /></g>
<g transform="translate(223.80789855,-109.14000000000001) rotate(90)"><polygon points="15.0,-15.29710145 15.0,-11.91710145 -15.0,-11.91710145 -15.0,-15.29710145" fill="none" stroke="black" /></g>
    </g>
    <style>
        text {
            font: 1mm sans-serif;
            text-anchor: middle;
            dominant-baseline: middle;
        }
    </style>
    <g transform="scale(1, 1)" stroke-width="0.4" fill="#000">
        <text x="86.4575" y="36.2075">0</text>
<text x="86.4575" y="108.1225">1</text>
<text x="223.80789855" y="36.38">8</text>
<text x="223.80789855" y="109.14000000000001">9</text>
    </g>
</svg>
