<?xml version="1.0" encoding="UTF-8" standalone="no"?>
<svg
    xmlns:svg="http://www.w3.org/2000/svg"
    xmlns="http://www.w3.org/2000/svg"
    width="269.4mm"
    height="205.9mm"
    viewbox="0 0 269.4 205.9"
>
    <!-- <rect x="1" y="1" width="267.4" height="203.9" fill="transparent" stroke-width="0.02" stroke="#000" /> -->
    <rect x="0" y="0" width="269.4" height="205.9" fill="transparent" stroke-width="0.02" stroke="#000" />
    <g transform="scale(1, -1)" stroke-width="0.4" fill="none">
        <g transform="translate(86.88,-29.25) rotate(0)"><polygon points="83.88,15.0 80.5,15.0 80.5,26.0 18.38,26.0 18.38,22.62 15.0,22.62 15.0,26.0 -31.62,26.0 -31.62,22.62 -35.0,22.62 -35.0,26.0 -80.5,26.0 -80.5,15.0 -83.88,15.0 -83.88,-15.0 -80.5,-15.0 -80.5,-26.0 80.5,-26.0 80.5,-15.0 83.88,-15.0" fill="none" stroke="black" /></g>
<g transform="translate(86.88,-29.25) rotate(0)"><polygon points="55.25,-14.94 55.25,-11.56 25.25,-11.56 25.25,-14.94" fill="none" stroke="black" /></g>
<g transform="translate(86.88,-29.25) rotate(0)"><polygon points="-25.25,-14.94 -25.25,-11.56 -55.25,-11.56 -55.25,-14.94" fill="none" stroke="black" /></g>
<g transform="translate(86.88,-87.25) rotate(0)"><polygon points="83.88,15.0 80.5,15.0 80.5,26.0 18.38,26.0 18.38,22.62 15.0,22.62 15.0,26.0 -31.62,26.0 -31.62,22.62 -35.0,22.62 -35.0,26.0 -80.5,26.0 -80.5,15.0 -83.88,15.0 -83.88,-15.0 -80.5,-15.0 -80.5,-26.0 80.5,-26.0 80.5,-15.0 83.88,-15.0" fill="none" stroke="black" /></g>
<g transform="translate(86.88,-87.25) rotate(0)"><polygon points="55.25,-14.94 55.25,-11.56 25.25,-11.56 25.25,-14.94" fill="none" stroke="black" /></g>
<g transform="translate(86.88,-87.25) rotate(0)"><polygon points="-25.25,-14.94 -25.25,-11.56 -55.25,-11.56 -55.25,-14.94" fill="none" stroke="black" /></g>
<g transform="translate(210.14,-69.76289855) rotate(0)"><polygon points="-2.0,66.51289855 -2.0,62.64289855 -3.94,62.64289855 -3.94,45.13043478 -12.47421023,39.68832971 -13.87214168,41.88054039 -30.73530076,31.12722156 -29.33736931,28.93501088 -33.38,26.35710145 -33.38,14.64289855 -30.0,14.64289855 -30.0,-15.35710145 -33.38,-15.35710145 -33.38,-26.35710145 33.38,-26.35710145 33.38,-15.35710145 30.0,-15.35710145 30.0,14.64289855 33.38,14.64289855 33.38,26.35710145 29.33736931,28.93501088 30.73530076,31.12722156 13.87214168,41.88054039 12.47421023,39.68832971 3.94,45.13043478 3.94,62.64289855 2.0,62.64289855 2.0,66.51289855" fill="none" stroke="black" /></g>
<g transform="translate(210.14,-69.76289855) rotate(0)"><polygon points="15.0,-11.91710145 -15.0,-11.91710145 -15.0,-15.29710145 15.0,-15.29710145" fill="none" stroke="black" /></g>
<g transform="translate(36.38,-142.58289855) rotate(0)"><polygon points="30.0,-5.42710145 30.0,-2.04710145 33.38,-2.04710145 33.38,2.04710145 29.33736931,4.62501088 30.73530076,6.81722156 13.87214168,17.57054039 12.47421023,15.37832971 0.0,23.33289855 -12.47421023,15.37832971 -13.87214168,17.57054039 -30.73530076,6.81722156 -29.33736931,4.62501088 -33.38,2.04710145 -33.38,-2.04710145 -30.0,-2.04710145 -30.0,-5.42710145" fill="none" stroke="black" /></g>
<g transform="translate(36.38,-142.58289855) rotate(0)"><polygon points="-12.5,9.64289855 12.5,9.64289855 12.5,13.02289855 -12.5,13.02289855" fill="none" stroke="black" /></g>
<g transform="translate(109.14000000000001,-142.58289855) rotate(0)"><polygon points="30.0,-5.42710145 30.0,-2.04710145 33.38,-2.04710145 33.38,2.04710145 29.33736931,4.62501088 30.73530076,6.81722156 13.87214168,17.57054039 12.47421023,15.37832971 0.0,23.33289855 -12.47421023,15.37832971 -13.87214168,17.57054039 -30.73530076,6.81722156 -29.33736931,4.62501088 -33.38,2.04710145 -33.38,-2.04710145 -30.0,-2.04710145 -30.0,-5.42710145" fill="none" stroke="black" /></g>
<g transform="translate(109.14000000000001,-142.58289855) rotate(0)"><polygon points="-12.5,9.64289855 12.5,9.64289855 12.5,13.02289855 -12.5,13.02289855" fill="none" stroke="black" /></g>
<g transform="translate(181.9,-142.58289855) rotate(0)"><polygon points="30.0,-5.42710145 30.0,-2.04710145 33.38,-2.04710145 33.38,2.04710145 29.33736931,4.62501088 30.73530076,6.81722156 13.87214168,17.57054039 12.47421023,15.37832971 0.0,23.33289855 -12.47421023,15.37832971 -13.87214168,17.57054039 -30.73530076,6.81722156 -29.33736931,4.62501088 -33.38,2.04710145 -33.38,-2.04710145 -30.0,-2.04710145 -30.0,-5.42710145" fill="none" stroke="black" /></g>
<g transform="translate(181.9,-142.58289855) rotate(0)"><polygon points="-12.5,9.64289855 12.5,9.64289855 12.5,13.02289855 -12.5,13.02289855" fill="none" stroke="black" /></g>
<g transform="translate(236.53000000000003,-128.56) rotate(90)"><polygon points="26.69,12.5 23.31,12.5 23.31,15.0 -23.31,15.0 -23.31,12.5 -26.69,12.5 -26.69,-12.5 -23.31,-12.5 -23.31,-15.0 23.31,-15.0 23.31,-12.5 26.69,-12.5" fill="none" stroke="black" /></g>
<g transform="translate(254.45999999999998,-16.75) rotate(0)"><polygon points="4.94,-13.5 4.94,13.5 -4.94,13.5 -4.94,-13.5" fill="none" stroke="black" /></g>
<g transform="translate(194.38,-106.81) rotate(90)"><polygon points="-2.0,17.37 -2.0,13.5 -4.94,13.5 -4.94,-13.5 4.94,-13.5 4.94,13.5 2.0,13.5 2.0,17.37" fill="none" stroke="black" /></g>
<g transform="translate(254.45999999999998,-49.75) rotate(0)"><polygon points="4.94,-13.5 4.94,13.5 -4.94,13.5 -4.94,-13.5" fill="none" stroke="black" /></g>
<g transform="translate(11.75,-157.7) rotate(90)"><polygon points="3.94,-8.5 3.94,8.5 -3.94,8.5 -3.94,-8.5" fill="none" stroke="black" /></g>
    </g>
    <style>
        text {
            font: 1mm sans-serif;
            text-anchor: middle;
            dominant-baseline: middle;
        }
    </style>
    <g transform="scale(1, 1)" stroke-width="0.4" fill="#000">
        <text x="86.88" y="29.25">2</text>
<text x="86.88" y="87.25">3</text>
<text x="210.14" y="69.76289855">6</text>
<text x="36.38" y="142.58289855">10</text>
<text x="109.14000000000001" y="142.58289855">11</text>
<text x="181.9" y="142.58289855">12</text>
<text x="236.53000000000003" y="128.56">14</text>
<text x="254.45999999999998" y="16.75">16</text>
<text x="194.38" y="106.81">17</text>
<text x="254.45999999999998" y="49.75">18</text>
<text x="11.75" y="157.7">20</text>
    </g>
</svg>
