<?xml version="1.0" encoding="UTF-8" standalone="no"?>
<svg
    xmlns:svg="http://www.w3.org/2000/svg"
    xmlns="http://www.w3.org/2000/svg"
    width="269.4mm"
    height="205.9mm"
    viewbox="0 0 269.4 205.9"
>
    <!-- <rect x="1" y="1" width="267.4" height="203.9" fill="transparent" stroke-width="0.02" stroke="#000" /> -->
    <rect x="0" y="0" width="269.4" height="205.9" fill="transparent" stroke-width="0.02" stroke="#000" />
    <g transform="scale(1, -1)" stroke-width="0.4" fill="none">
        <g transform="translate(86.88,-29.25) rotate(0)"><polygon points="83.88,15.0 80.5,15.0 80.5,26.0 35.0,26.0 35.0,22.62 31.62,22.62 31.62,26.0 -15.0,26.0 -15.0,22.62 -18.38,22.62 -18.38,26.0 -80.5,26.0 -80.5,15.0 -83.88,15.0 -83.88,-15.0 -80.5,-15.0 -80.5,-26.0 80.5,-26.0 80.5,-15.0 83.88,-15.0" fill="none" stroke="black" /></g>
<g transform="translate(86.88,-29.25) rotate(0)"><polygon points="64.5,-12.0 79.5,-12.0 79.5,20.5 64.5,20.5" fill="none" stroke="black" /></g>
<g transform="translate(86.88,-29.25) rotate(0)"><polygon points="40.0,-3.5 53.0,-3.5 53.0,20.5 40.0,20.5" fill="none" stroke="black" /></g>
<g transform="translate(86.88,-29.25) rotate(0)"><polygon points="13.0,-3.5 26.0,-3.5 26.0,20.5 13.0,20.5" fill="none" stroke="black" /></g>
<g transform="translate(86.88,-29.25) rotate(0)"><polygon points="55.25,-14.94 55.25,-11.56 25.25,-11.56 25.25,-14.94" fill="none" stroke="black" /></g>
<g transform="translate(86.88,-29.25) rotate(0)"><polygon points="-12.5,-12.0 2.5,-12.0 2.5,20.5 -12.5,20.5" fill="none" stroke="black" /></g>
<g transform="translate(86.88,-29.25) rotate(0)"><polygon points="-35.0,-3.5 -22.0,-3.5 -22.0,20.5 -35.0,20.5" fill="none" stroke="black" /></g>
<g transform="translate(86.88,-29.25) rotate(0)"><polygon points="-56.0,-3.5 -43.0,-3.5 -43.0,20.5 -56.0,20.5" fill="none" stroke="black" /></g>
<g transform="translate(86.88,-29.25) rotate(0)"><polygon points="-80.0,-12.0 -65.0,-12.0 -65.0,20.5 -80.0,20.5" fill="none" stroke="black" /></g>
<g transform="translate(86.88,-29.25) rotate(0)"><polygon points="-25.25,-14.94 -25.25,-11.56 -55.25,-11.56 -55.25,-14.94" fill="none" stroke="black" /></g>
<g transform="translate(86.88,-87.25) rotate(0)"><polygon points="83.88,15.0 80.5,15.0 80.5,26.0 35.0,26.0 35.0,22.62 31.62,22.62 31.62,26.0 -15.0,26.0 -15.0,22.62 -18.38,22.62 -18.38,26.0 -80.5,26.0 -80.5,15.0 -83.88,15.0 -83.88,-15.0 -80.5,-15.0 -80.5,-26.0 80.5,-26.0 80.5,-15.0 83.88,-15.0" fill="none" stroke="black" /></g>
<g transform="translate(86.88,-87.25) rotate(0)"><polygon points="64.5,-12.0 79.5,-12.0 79.5,20.5 64.5,20.5" fill="none" stroke="black" /></g>
<g transform="translate(86.88,-87.25) rotate(0)"><polygon points="40.0,-3.5 53.0,-3.5 53.0,20.5 40.0,20.5" fill="none" stroke="black" /></g>
<g transform="translate(86.88,-87.25) rotate(0)"><polygon points="13.0,-3.5 26.0,-3.5 26.0,20.5 13.0,20.5" fill="none" stroke="black" /></g>
<g transform="translate(86.88,-87.25) rotate(0)"><polygon points="55.25,-14.94 55.25,-11.56 25.25,-11.56 25.25,-14.94" fill="none" stroke="black" /></g>
<g transform="translate(86.88,-87.25) rotate(0)"><polygon points="-12.5,-12.0 2.5,-12.0 2.5,20.5 -12.5,20.5" fill="none" stroke="black" /></g>
<g transform="translate(86.88,-87.25) rotate(0)"><polygon points="-35.0,-3.5 -22.0,-3.5 -22.0,20.5 -35.0,20.5" fill="none" stroke="black" /></g>
<g transform="translate(86.88,-87.25) rotate(0)"><polygon points="-56.0,-3.5 -43.0,-3.5 -43.0,20.5 -56.0,20.5" fill="none" stroke="black" /></g>
<g transform="translate(86.88,-87.25) rotate(0)"><polygon points="-80.0,-12.0 -65.0,-12.0 -65.0,20.5 -80.0,20.5" fill="none" stroke="black" /></g>
<g transform="translate(86.88,-87.25) rotate(0)"><polygon points="-25.25,-14.94 -25.25,-11.56 -55.25,-11.56 -55.25,-14.94" fill="none" stroke="black" /></g>
<g transform="translate(210.14,-65.89289855) rotate(0)"><polygon points="-30.73530076,31.12722156 -29.33736931,28.93501088 -33.38,26.35710145 -33.38,14.64289855 -30.0,14.64289855 -30.0,-15.35710145 -33.38,-15.35710145 -33.38,-26.35710145 33.38,-26.35710145 33.38,-15.35710145 30.0,-15.35710145 30.0,14.64289855 33.38,14.64289855 33.38,26.35710145 29.33736931,28.93501088 30.73530076,31.12722156 13.87214168,41.88054039 12.47421023,39.68832971 3.94,45.13043478 3.94,62.64289855 -3.94,62.64289855 -3.94,45.13043478 -12.47421023,39.68832971 -13.87214168,41.88054039" fill="none" stroke="black" /></g>
<g transform="translate(210.14,-65.89289855) rotate(0)"><polygon points="15.0,-15.29710145 -15.0,-15.29710145 -15.0,-11.91710145 15.0,-11.91710145" fill="none" stroke="black" /></g>
<g transform="translate(36.38,-142.58289855) rotate(0)"><polygon points="30.0,-5.42710145 30.0,-2.04710145 33.38,-2.04710145 33.38,2.04710145 29.33736931,4.62501088 30.73530076,6.81722156 13.87214168,17.57054039 12.47421023,15.37832971 0.0,23.33289855 -12.47421023,15.37832971 -13.87214168,17.57054039 -30.73530076,6.81722156 -29.33736931,4.62501088 -33.38,2.04710145 -33.38,-2.04710145 -30.0,-2.04710145 -30.0,-5.42710145" fill="none" stroke="black" /></g>
<g transform="translate(36.38,-142.58289855) rotate(0)"><polygon points="-12.5,9.64289855 12.5,9.64289855 12.5,13.02289855 -12.5,13.02289855" fill="none" stroke="black" /></g>
<g transform="translate(192.01,-124.69) rotate(90)"><polygon points="26.69,12.5 23.31,12.5 23.31,15.0 -23.31,15.0 -23.31,12.5 -26.69,12.5 -26.69,-12.5 -23.31,-12.5 -23.31,-15.0 23.31,-15.0 23.31,-12.5 26.69,-12.5" fill="none" stroke="black" /></g>
<g transform="translate(192.01,-124.69) rotate(90)"><polygon points="5.315,-6.185 5.315,6.185 -4.495,6.185 -4.495,-6.185" fill="none" stroke="black" /></g>
<g transform="translate(254.45999999999998,-16.75) rotate(0)"><polygon points="4.94,-13.5 4.94,13.5 -4.94,13.5 -4.94,-13.5" fill="none" stroke="black" /></g>
    </g>
    <style>
        text {
            font: 1mm sans-serif;
            text-anchor: middle;
            dominant-baseline: middle;
        }
    </style>
    <g transform="scale(1, 1)" stroke-width="0.4" fill="#000">
        <text x="86.88" y="29.25">4</text>
<text x="86.88" y="87.25">5</text>
<text x="210.14" y="65.89289855">7</text>
<text x="36.38" y="142.58289855">13</text>
<text x="192.01" y="124.69">15</text>
<text x="254.45999999999998" y="16.75">19</text>
    </g>
</svg>
