<?xml version="1.0" encoding="UTF-8" standalone="no"?>
<svg
    xmlns:svg="http://www.w3.org/2000/svg"
    xmlns="http://www.w3.org/2000/svg"
    width="269.4mm"
    height="205.9mm"
    viewbox="0 0 269.4 205.9"
>
    <!-- <rect x="1" y="1" width="267.4" height="203.9" fill="transparent" stroke-width="0.02" stroke="#000" /> -->
    <rect x="0" y="0" width="269.4" height="205.9" fill="transparent" stroke-width="0.02" stroke="#000" />
    <g transform="scale(1, -1)" stroke-width="0.4" fill="none">
        <g transform="translate(24.9017,-50.0) rotate(90)"><polygon points="41.62,-19.6517 41.62,-15.0 45.0,-15.0 45.0,15.0 41.62,15.0 41.62,19.6517 15.0,19.6517 15.0,16.2717 -15.0,16.2717 -15.0,19.6517 -41.62,19.6517 -41.62,15.0 -45.0,15.0 -45.0,-15.0 -41.62,-15.0 -41.62,-19.6517 -15.0,-19.6517 -15.0,-16.2717 15.0,-16.2717 15.0,-19.6517" fill="none" stroke="black" /></g>
<g transform="translate(24.9017,-50.0) rotate(90)"><polygon points="31.62,4.6517 31.62,-4.6517 26.62,-9.6517 -26.62,-9.6517 -31.62,-4.6517 -31.62,4.6517 -26.62,9.6517 26.62,9.6517" fill="none" stroke="black" /></g>
<g transform="translate(50.0,-124.9017) rotate(0)"><polygon points="41.62,-19.6517 41.62,-15.0 45.0,-15.0 45.0,15.0 41.62,15.0 41.62,19.6517 15.0,19.6517 15.0,16.2717 -15.0,16.2717 -15.0,19.6517 -41.62,19.6517 -41.62,15.0 -45.0,15.0 -45.0,-15.0 -41.62,-15.0 -41.62,-19.6517 -15.0,-19.6517 -15.0,-16.2717 15.0,-16.2717 15.0,-19.6517" fill="none" stroke="black" /></g>
<g transform="translate(50.0,-124.9017) rotate(0)"><polygon points="31.62,4.6517 31.62,-4.6517 26.62,-9.6517 -26.62,-9.6517 -31.62,-4.6517 -31.62,4.6517 -26.62,9.6517 26.62,9.6517" fill="none" stroke="black" /></g>
<g transform="translate(74.2051,-50.0) rotate(90)"><polygon points="41.62,-19.6517 41.62,-15.0 45.0,-15.0 45.0,15.0 41.62,15.0 41.62,19.6517 15.0,19.6517 15.0,16.2717 -15.0,16.2717 -15.0,19.6517 -41.62,19.6517 -41.62,15.0 -45.0,15.0 -45.0,-15.0 -41.62,-15.0 -41.62,-19.6517 -15.0,-19.6517 -15.0,-16.2717 15.0,-16.2717 15.0,-19.6517" fill="none" stroke="black" /></g>
<g transform="translate(74.2051,-50.0) rotate(90)"><polygon points="31.62,4.6517 31.62,-4.6517 26.62,-9.6517 -26.62,-9.6517 -31.62,-4.6517 -31.62,4.6517 -26.62,9.6517 26.62,9.6517" fill="none" stroke="black" /></g>
<g transform="translate(123.50850000000001,-50.0) rotate(90)"><polygon points="41.62,-19.6517 41.62,-15.0 45.0,-15.0 45.0,15.0 41.62,15.0 41.62,19.6517 15.0,19.6517 15.0,16.2717 -15.0,16.2717 -15.0,19.6517 -41.62,19.6517 -41.62,15.0 -45.0,15.0 -45.0,-15.0 -41.62,-15.0 -41.62,-19.6517 -15.0,-19.6517 -15.0,-16.2717 15.0,-16.2717 15.0,-19.6517" fill="none" stroke="black" /></g>
<g transform="translate(123.50850000000001,-50.0) rotate(90)"><polygon points="31.62,4.6517 31.62,-4.6517 26.62,-9.6517 -26.62,-9.6517 -31.62,-4.6517 -31.62,4.6517 -26.62,9.6517 26.62,9.6517" fill="none" stroke="black" /></g>
    </g>
</svg>
