<?xml version="1.0" encoding="UTF-8" standalone="no"?>
<svg
    xmlns:svg="http://www.w3.org/2000/svg"
    xmlns="http://www.w3.org/2000/svg"
    width="269.4mm"
    height="205.9mm"
    viewbox="0 0 269.4 205.9"
>
    <!-- <rect x="1" y="1" width="267.4" height="203.9" fill="transparent" stroke-width="0.02" stroke="#000" /> -->
    <rect x="0" y="0" width="269.4" height="205.9" fill="transparent" stroke-width="0.02" stroke="#000" />
    <g transform="scale(1, -1)" stroke-width="0.4" fill="none">
        <g transform="translate(40.25,-50.0) rotate(90)"><polygon points="41.62,-31.62 41.62,-15.0 45.0,-15.0 45.0,15.0 41.62,15.0 41.62,31.62 15.0,31.62 15.0,35.0 -15.0,35.0 -15.0,31.62 -41.62,31.62 -41.62,15.0 -45.0,15.0 -45.0,-15.0 -41.62,-15.0 -41.62,-31.62 -15.0,-31.62 -15.0,-35.0 15.0,-35.0 15.0,-31.62" fill="none" stroke="black" /></g>
<g transform="translate(40.25,-50.0) rotate(90)"><polygon points="31.62,16.62 31.62,-16.62 26.62,-21.62 -26.62,-21.62 -31.62,-16.62 -31.62,16.62 -26.62,21.62 26.62,21.62" fill="none" stroke="black" /></g>
<g transform="translate(120.25,-50.0) rotate(90)"><polygon points="41.62,-31.62 41.62,-15.0 45.0,-15.0 45.0,15.0 41.62,15.0 41.62,31.62 15.0,31.62 15.0,35.0 -15.0,35.0 -15.0,31.62 -41.62,31.62 -41.62,15.0 -45.0,15.0 -45.0,-15.0 -41.62,-15.0 -41.62,-31.62 -15.0,-31.62 -15.0,-35.0 15.0,-35.0 15.0,-31.62" fill="none" stroke="black" /></g>
<g transform="translate(120.25,-50.0) rotate(90)"><polygon points="31.62,16.62 31.62,-16.62 26.62,-21.62 -26.62,-21.62 -31.62,-16.62 -31.62,16.62 -26.62,21.62 26.62,21.62" fill="none" stroke="black" /></g>
<g transform="translate(50.0,-130.25) rotate(0)"><polygon points="41.62,-25.0 41.62,-15.0 45.0,-15.0 45.0,15.0 41.62,15.0 41.62,25.0 15.0,25.0 15.0,21.62 -15.0,21.62 -15.0,25.0 -41.62,25.0 -41.62,15.0 -45.0,15.0 -45.0,-15.0 -41.62,-15.0 -41.62,-25.0 -15.0,-25.0 -15.0,-21.62 15.0,-21.62 15.0,-25.0" fill="none" stroke="black" /></g>
<g transform="translate(220.25,-40.0) rotate(90)"><polygon points="35.0,25.0 28.8888,30.2381 26.6892,27.6718 3.9115,47.1956 6.1112,49.7619 0.0,55.0 -6.1112,49.7619 -3.9115,47.1956 -26.6892,27.6718 -28.8888,30.2381 -35.0,25.0 -35.0,15.0 -31.62,15.0 -31.62,-15.0 -35.0,-15.0 -35.0,-25.0 -15.0,-25.0 -15.0,-21.62 15.0,-21.62 15.0,-25.0 35.0,-25.0 35.0,-15.0 31.62,-15.0 31.62,15.0 35.0,15.0" fill="none" stroke="black" /></g>
<g transform="translate(220.25,-120.0) rotate(90)"><polygon points="35.0,25.0 28.8888,30.2381 26.6892,27.6718 3.9115,47.1956 6.1112,49.7619 0.0,55.0 -6.1112,49.7619 -3.9115,47.1956 -26.6892,27.6718 -28.8888,30.2381 -35.0,25.0 -35.0,15.0 -31.62,15.0 -31.62,-15.0 -35.0,-15.0 -35.0,-25.0 -15.0,-25.0 -15.0,-21.62 15.0,-21.62 15.0,-25.0 35.0,-25.0 35.0,-15.0 31.62,-15.0 31.62,15.0 35.0,15.0" fill="none" stroke="black" /></g>
    </g>
</svg>
